<?xml version="1.0" encoding="UTF-8"?>
<svg version="1.1" xmlns="http://www.w3.org/2000/svg" width="339" height="381">
<path d="M0 0 C0.82765869 0.45665039 1.65531738 0.91330078 2.50805664 1.38378906 C3.45261719 1.89989746 4.39717773 2.41600586 5.37036133 2.94775391 C6.87904785 3.79007568 6.87904785 3.79007568 8.41821289 4.64941406 C9.47943359 5.23287598 10.5406543 5.81633789 11.6340332 6.41748047 C19.64528109 10.83612875 27.60123507 15.35241908 35.55078125 19.88085938 C43.71892946 24.5151716 51.99024282 28.94732198 60.28088379 33.35687256 C69.18560749 38.09603464 77.99444735 42.98042264 86.75366211 47.9831543 C95.3638881 52.88011758 104.08905336 57.55246569 112.84985352 62.17285156 C115.02566948 63.3265158 117.18531611 64.51120488 119.32749939 65.72618103 C122.37313601 67.39960065 125.45244545 68.69359975 128.6910553 69.94923401 C142.61080159 75.83901434 142.61080159 75.83901434 145.72388458 82.59888649 C147.77721079 90.70994321 147.48063775 99.05148893 147.40649414 107.36035156 C147.44571352 110.07441539 147.51607195 112.78744796 147.585495 115.50088501 C147.73179853 121.91479832 147.77252988 128.32480667 147.77464312 134.74021113 C147.7821371 141.92561803 147.90822754 149.10728073 148.04453909 156.2912147 C148.27845378 168.80824542 148.47389227 181.32722133 148.43567371 193.84677696 C148.42141566 199.59658077 148.4721293 205.32044757 148.77002627 211.06212604 C148.9070657 213.80221997 149.00220766 216.54307598 149.09361875 219.28502584 C149.1743771 221.2084356 149.31361794 223.12911133 149.45458698 225.04904747 C149.70703641 233.58658166 149.70703641 233.58658166 146.11486149 237.43216038 C143.31884669 239.48413995 140.51311332 241.22223171 137.48071289 242.89941406 C136.21729744 243.73922696 134.96007059 244.58868927 133.71728516 245.45874023 C132.57904224 246.20605561 131.4389555 246.95056955 130.29711914 247.69238281 C129.65522141 248.11286896 129.01332367 248.5333551 128.35197449 248.96658325 C126.97058745 249.87107008 125.58839304 250.77432488 124.20544434 251.67642212 C121.18965883 253.64371436 118.17803249 255.61733679 115.16604614 257.59043884 C113.53919531 258.65606816 111.91213635 259.72137981 110.28488159 260.78639221 C100.88172789 266.94168003 91.49742079 273.12553079 82.11422729 279.31118774 C79.2999801 281.16625519 76.4852322 283.02056083 73.67041016 284.87475586 C55.56436255 296.76736232 55.56436255 296.76736232 37.63626099 308.92497253 C35.05048813 310.70982689 32.45650019 312.48251053 29.86132812 314.25366211 C28.54576184 315.1563267 27.23433552 316.06504973 25.92675781 316.97924805 C23.99578061 318.32706492 22.05083613 319.65210467 20.10180664 320.97363281 C19.23452187 321.5905323 19.23452187 321.5905323 18.34971619 322.21989441 C15.52670878 324.10383159 13.81599192 324.90894957 10.39038086 324.81152344 C7.4301261 323.88355635 4.99344433 322.77579172 2.30493164 321.23144531 C1.32508301 320.67513428 0.34523437 320.11882324 -0.66430664 319.5456543 C-1.7095752 318.94052002 -2.75484375 318.33538574 -3.83178711 317.71191406 C-6.08554689 316.4278028 -8.33945736 315.14395598 -10.59350586 313.86035156 C-11.75554062 313.19481534 -12.91748718 312.5291251 -14.0793457 311.86328125 C-19.41386395 308.81779759 -24.78002323 305.82957756 -30.14428711 302.83691406 C-41.95612699 296.22669487 -53.74430252 289.5750319 -65.51928711 282.89941406 C-66.29062988 282.46274414 -67.06197266 282.02607422 -67.85668945 281.57617188 C-69.87027375 280.43575876 -71.88257973 279.29313394 -73.89428711 278.14941406 C-75.51463867 277.22902344 -75.51463867 277.22902344 -77.16772461 276.29003906 C-79.51928711 274.89941406 -79.51928711 274.89941406 -80.51928711 273.89941406 C-80.65253093 272.01870261 -80.71620736 270.13304385 -80.75343323 268.24798584 C-80.79335892 266.40616226 -80.79335892 266.40616226 -80.83409119 264.52713013 C-80.85888716 263.15350508 -80.8835879 261.7798783 -80.90820312 260.40625 C-80.93748994 258.96907714 -80.96720374 257.53191292 -80.99731445 256.09475708 C-81.07814532 252.17679212 -81.15286431 248.25873133 -81.22646832 244.34062481 C-81.30453186 240.23598844 -81.38792372 236.13146029 -81.47068787 232.0269165 C-81.60919782 225.11989335 -81.74406612 218.21280694 -81.87646484 211.30566406 C-82.04580049 202.47225994 -82.22075052 193.63897691 -82.397645 184.80572128 C-82.55016508 177.18879934 -82.70037319 169.57183206 -82.85006213 161.95485401 C-82.89795942 159.52067799 -82.94610699 157.086507 -82.9942646 154.65233612 C-83.07027989 150.80122679 -83.14485476 146.95009189 -83.21837616 143.09893417 C-83.24535753 141.69501038 -83.27275177 140.29109444 -83.30061913 138.88718796 C-83.36293442 135.7405385 -83.41867203 132.59410379 -83.46154976 129.44712067 C-83.50089723 127.02939119 -83.56440491 124.61196262 -83.64909172 122.19539642 C-83.67847895 121.03112373 -83.70786617 119.86685104 -83.73814392 118.66729736 C-83.77341659 117.63515736 -83.80868925 116.60301735 -83.84503078 115.53960037 C-83.45744459 112.39817405 -82.71914214 111.50562985 -80.27709961 109.56738281 C-78.7596444 108.6923181 -77.21204578 107.86828548 -75.64428711 107.08691406 C-73.89345114 106.1014186 -72.14349875 105.11435225 -70.39428711 104.12597656 C-69.44682617 103.61196289 -68.49936523 103.09794922 -67.52319336 102.56835938 C-62.11202424 99.56195884 -56.89696998 96.23464995 -51.64428711 92.96191406 C-49.42394947 91.59567734 -47.20259888 90.23108541 -44.98022461 88.86816406 C-39.07210296 85.23996916 -33.16783156 81.60565827 -27.26928711 77.96191406 C-26.41681396 77.43718506 -25.56434082 76.91245605 -24.68603516 76.37182617 C-20.8330843 73.99162925 -17.0109788 71.58265412 -13.24975586 69.05957031 C-12.2786084 68.41266235 -12.2786084 68.41266235 -11.2878418 67.75268555 C-9.59564973 66.61756311 -7.91436804 65.4662211 -6.23413086 64.31347656 C-3.51928711 62.89941406 -3.51928711 62.89941406 -1.62426758 63.16943359 C0.69589174 63.97403535 2.72273914 64.98154064 4.87524414 66.16503906 C5.73609619 66.63603027 6.59694824 67.10702148 7.48388672 67.59228516 C8.41096436 68.1061377 9.33804199 68.61999023 10.29321289 69.14941406 C11.26734131 69.68518066 12.24146973 70.22094727 13.24511719 70.77294922 C22.04218031 75.62489769 30.78779452 80.56731784 39.52368164 85.52832031 C44.77958124 88.51002416 50.05648674 91.45287822 55.33691406 94.39086914 C71.58824324 103.44447018 71.58824324 103.44447018 78.48071289 107.58691406 C79.45008789 108.16828125 80.41946289 108.74964844 81.41821289 109.34863281 C83.48071289 110.89941406 83.48071289 110.89941406 84.48071289 113.89941406 C84.6858404 116.37137711 84.8433597 118.82523861 84.96142578 121.30151367 C85.00058609 122.05320831 85.0397464 122.80490295 85.08009338 123.57937622 C85.20871002 126.06997587 85.33117733 128.5608353 85.45336914 131.05175781 C85.54133869 132.78993638 85.62959471 134.52810048 85.71812439 136.26625061 C85.90313955 139.91703653 86.08521354 143.56795381 86.26513672 147.21899414 C86.49444476 151.86902577 86.73010517 156.51870763 86.96791935 161.16831112 C87.15124333 164.76386696 87.33153991 168.35956978 87.51092339 171.95532417 C87.59661641 173.66754831 87.68312175 175.37973201 87.77049446 177.09187126 C88.00425864 181.69300541 88.21901957 186.29402564 88.39791489 190.89763641 C88.47608922 192.78762929 88.57570642 194.67670004 88.67666626 196.56561279 C88.71407928 197.63249329 88.75149231 198.69937378 88.79003906 199.79858398 C88.83013596 200.70082199 88.87023285 201.60306 88.9115448 202.53263855 C88.32416757 205.75939592 86.8869192 206.84128192 84.37133789 208.86035156 C82.51701691 210.04008394 80.6343952 211.17611153 78.73071289 212.27441406 C76.69572148 213.54994523 74.6618904 214.82732925 72.62915039 216.10644531 C71.0798584 217.05318115 71.0798584 217.05318115 69.49926758 218.01904297 C64.9927803 220.82630316 60.67926486 223.88330282 56.35571289 226.96191406 C54.70922913 228.11909182 53.06209306 229.27534201 51.41430664 230.43066406 C49.76973456 231.58685598 48.12520348 232.74310624 46.48071289 233.89941406 C41.4847505 237.4097222 36.48615589 240.91604211 31.47680664 244.40722656 C28.01644489 246.81889033 24.57504648 249.25531852 21.14086914 251.70410156 C19.42110329 252.91544553 17.70106084 254.12639693 15.98071289 255.33691406 C15.18528076 255.91127197 14.38984863 256.48562988 13.5703125 257.07739258 C12.82918213 257.59487061 12.08805176 258.11234863 11.32446289 258.64550781 C10.67670898 259.10626709 10.02895508 259.56702637 9.36157227 260.04174805 C7.48071289 260.89941406 7.48071289 260.89941406 5.50708008 260.72460938 C3.10833191 259.74776976 1.28819312 258.50502424 -0.78491211 256.95019531 C-1.5931543 256.34884766 -2.40139648 255.7475 -3.23413086 255.12792969 C-4.07073242 254.49564453 -4.90733398 253.86335937 -5.76928711 253.21191406 C-7.00098633 252.29249023 -7.00098633 252.29249023 -8.25756836 251.35449219 C-9.89007789 250.1346376 -11.51968389 248.91088682 -13.14624023 247.68310547 C-14.71559441 246.50350654 -16.2923613 245.33369925 -17.87670898 244.17431641 C-18.59922852 243.64402832 -19.32174805 243.11374023 -20.06616211 242.56738281 C-21.03054199 241.86585083 -21.03054199 241.86585083 -22.0144043 241.15014648 C-23.51928711 239.89941406 -23.51928711 239.89941406 -24.51928711 237.89941406 C-24.69852869 235.63684685 -24.81685245 233.36937929 -24.90820312 231.1015625 C-24.93760986 230.40199432 -24.9670166 229.70242615 -24.99731445 228.98165894 C-25.09379705 226.65752925 -25.18361757 224.33319444 -25.27319336 222.00878906 C-25.33870564 220.38607513 -25.40454199 218.76337426 -25.47068787 217.14068604 C-25.60882144 213.72768732 -25.74380898 210.3145831 -25.87646484 206.90136719 C-26.04515839 202.56431046 -26.22026114 198.22754384 -26.397645 193.89083481 C-26.5345444 190.53107286 -26.66855112 187.17120023 -26.80167961 183.81128693 C-26.86513916 182.21516275 -26.92931342 180.6190668 -26.9942646 179.02300262 C-27.17070149 174.66052367 -27.32813809 170.29823493 -27.45522881 165.93402863 C-27.4980757 164.57312896 -27.54795451 163.21243321 -27.60472298 161.85204315 C-27.68414811 159.92252351 -27.73728905 157.99197638 -27.78930664 156.06152344 C-27.84527512 154.42008362 -27.84527512 154.42008362 -27.90237427 152.7454834 C-27.43470427 149.27102283 -26.41033825 148.11480018 -23.82006836 145.82128906 C-22.18875813 144.71609008 -20.52342092 143.65986589 -18.83178711 142.64941406 C-17.08580971 141.49886768 -15.34102288 140.34651259 -13.59741211 139.19238281 C-12.73438477 138.64243652 -11.87135742 138.09249023 -10.98217773 137.52587891 C-7.49692453 135.22425749 -4.30098165 132.61666409 -1.08178711 129.96191406 C3.82174251 125.92784993 3.82174251 125.92784993 6.56274414 125.80957031 C9.41411392 127.42979876 10.84450972 129.61277181 12.73071289 132.27441406 C13.43711914 133.25152344 14.14352539 134.22863281 14.87133789 135.23535156 C16.48071289 137.89941406 16.48071289 137.89941406 16.48071289 140.89941406 C14.81591797 142.46166992 14.81591797 142.46166992 12.50024414 144.11425781 C11.66557617 144.71818359 10.8309082 145.32210937 9.97094727 145.94433594 C9.08729492 146.56888672 8.20364258 147.1934375 7.29321289 147.83691406 C5.56998509 149.0743998 3.84731308 150.31265993 2.12524414 151.55175781 C0.97052612 152.37148071 0.97052612 152.37148071 -0.20751953 153.20776367 C-0.97040283 153.7660083 -1.73328613 154.32425293 -2.51928711 154.89941406 C-3.43323242 155.46176758 -4.34717773 156.02412109 -5.28881836 156.60351562 C-7.86925631 158.80644889 -7.86925631 158.80644889 -8.01855469 162.50805664 C-7.98820707 163.99991921 -7.9303159 165.49136669 -7.85131836 166.98144531 C-7.8034029 168.69969172 -7.7560731 170.41795453 -7.70922852 172.13623047 C-7.6755719 173.06356995 -7.64191528 173.99090942 -7.60723877 174.9463501 C-7.51534783 178.03167913 -7.49367588 181.11110327 -7.48950195 184.19775391 C-7.48150582 189.83743352 -7.39403535 195.47187282 -7.26904297 201.11010742 C-7.22719131 203.4473996 -7.20571158 205.78513683 -7.20361328 208.12280273 C-7.90303822 221.4703449 -7.90303822 221.4703449 -3.13500977 233.32763672 C-0.21507348 235.61525509 1.86903775 237.05255353 5.48071289 237.89941406 C8.95685929 236.98041784 11.626297 235.27760393 14.53540039 233.20410156 C15.30352051 232.66108398 16.07164062 232.11806641 16.86303711 231.55859375 C17.68562012 230.96981445 18.50820312 230.38103516 19.35571289 229.77441406 C21.14702905 228.50568986 22.93871055 227.23748138 24.73071289 225.96972656 C26.13643555 224.97247559 26.13643555 224.97247559 27.57055664 223.95507812 C32.47745689 220.48896235 37.41832923 217.0718955 42.35571289 213.64941406 C50.20247532 208.20853095 50.20247532 208.20853095 57.97680664 202.66503906 C58.63245605 202.19098633 59.28810547 201.71693359 59.96362305 201.22851562 C61.14493968 200.37035072 62.32323704 199.50800694 63.49780273 198.640625 C67.26426973 195.89941406 67.26426973 195.89941406 69.48071289 195.89941406 C69.63097756 186.52145832 69.62188834 177.16019524 69.41866016 167.78320312 C69.3290238 163.42542936 69.29090613 159.08077479 69.37744141 154.72265625 C70.36129478 136.61469447 70.36129478 136.61469447 64.17773819 120.27008057 C57.51538717 113.8386331 48.6854838 110.51339322 40.14268494 107.3525238 C34.45063389 105.09385697 29.29670644 102.01930532 24.04321289 98.89941406 C22.1952024 97.85246389 20.34526942 96.80889097 18.49243164 95.77050781 C15.33723717 93.97888272 12.21718585 92.14565624 9.12524414 90.24707031 C8.4780542 89.85583984 7.83086426 89.46460937 7.1640625 89.06152344 C5.50808597 88.05456809 3.86479057 87.02683435 2.22290039 85.99707031 C-0.43687779 84.59477611 -0.43687779 84.59477611 -2.8984375 85.66015625 C-5.43749174 86.86073747 -7.80064028 88.16332942 -10.19506836 89.62988281 C-11.09386719 90.17829834 -11.99266602 90.72671387 -12.91870117 91.29174805 C-13.88001953 91.88415283 -14.84133789 92.47655762 -15.83178711 93.08691406 C-16.83564453 93.70187744 -17.83950195 94.31684082 -18.8737793 94.95043945 C-34.30058025 104.39947734 -34.30058025 104.39947734 -49.57528687 114.09065247 C-52.51928711 115.89941406 -52.51928711 115.89941406 -55.4379425 117.32470703 C-61.18531108 120.23956826 -61.18531108 120.23956826 -64.42056274 125.52479553 C-64.65433993 128.92634535 -64.51275049 132.15830463 -64.26538086 135.55957031 C-64.2110665 136.89797394 -64.16284151 138.23663538 -64.11997986 139.57545471 C-64.01661974 142.61985079 -63.88395116 145.6613629 -63.73626709 148.70391846 C-63.47657835 154.42242741 -63.38455605 160.14030584 -63.30493164 165.86376953 C-63.28254708 167.4454917 -63.28254708 167.4454917 -63.25971031 169.05916786 C-63.22884247 171.24561408 -63.19808694 173.43206189 -63.16743851 175.6185112 C-63.08239138 181.24310299 -62.96989488 186.86711598 -62.85717773 192.49121094 C-62.81134759 194.78670221 -62.7655306 197.08219375 -62.71972656 199.37768555 C-62.69686584 200.52190979 -62.67400513 201.66613403 -62.65045166 202.84503174 C-62.55799216 207.54698791 -62.47093066 212.24903862 -62.38372135 216.95109463 C-62.29830909 221.50909845 -62.20898958 226.06701945 -62.11852837 230.62492561 C-62.07616461 232.7869624 -62.03510214 234.94902513 -61.99540901 237.11111259 C-61.93978521 240.11412891 -61.87877555 243.11699026 -61.81640625 246.11987305 C-61.80130005 246.99618378 -61.78619385 247.87249451 -61.77062988 248.77536011 C-61.65785071 253.88330518 -61.40529929 258.86134118 -60.51928711 263.89941406 C-58.37027871 266.10873555 -58.37027871 266.10873555 -55.39428711 267.46972656 C-54.30752686 268.04891846 -53.2207666 268.62811035 -52.10107422 269.22485352 C-50.90728072 269.82497673 -49.71334811 270.42482327 -48.51928711 271.02441406 C-47.29313526 271.66740438 -46.06862346 272.31353112 -44.84570312 272.96264648 C-42.32244314 274.29921654 -39.79284437 275.62244589 -37.25805664 276.93701172 C-31.58369903 279.8955344 -26.02635359 283.06197382 -20.45678711 286.21191406 C-18.41027984 287.35580137 -16.36341298 288.49904562 -14.31616211 289.64160156 C-10.55991968 291.74405046 -6.82187195 293.87401308 -3.09741211 296.03222656 C-2.26604736 296.50877686 -1.43468262 296.98532715 -0.578125 297.47631836 C0.95455932 298.35572222 2.48186599 299.24459609 4.00244141 300.14477539 C7.50679811 302.30728106 7.50679811 302.30728106 11.46540833 302.63945007 C13.59966338 301.85573449 15.28061371 300.91250321 17.17480469 299.65649414 C17.89010849 299.18617264 18.60541229 298.71585114 19.34239197 298.23127747 C20.11378006 297.71570786 20.88516815 297.20013824 21.67993164 296.66894531 C22.49462418 296.13085739 23.30931671 295.59276947 24.1486969 295.03837585 C26.82552656 293.26834403 29.49686433 291.49020494 32.16821289 289.71191406 C34.03021095 288.47837817 35.89251872 287.24530966 37.75512695 286.01269531 C43.33588583 282.31661166 48.90947632 278.60983156 54.48071289 274.89941406 C55.27729309 274.3689447 56.07387329 273.83847534 56.89459229 273.29193115 C63.17928691 269.10577687 69.46153549 264.91596636 75.73999023 260.72045898 C86.05261699 253.83219178 96.41135375 247.01623339 106.79614258 240.23730469 C107.89474609 239.51994141 108.99334961 238.80257812 110.12524414 238.06347656 C111.17663574 237.37801758 112.22802734 236.69255859 113.3112793 235.98632812 C115.51754885 234.53360958 117.71172067 233.07048092 119.89624023 231.5859375 C120.9798584 230.85149414 122.06347656 230.11705078 123.17993164 229.36035156 C124.15148193 228.69567871 125.12303223 228.03100586 126.12402344 227.34619141 C128.48071289 225.89941406 128.48071289 225.89941406 130.48071289 225.89941406 C130.31799424 225.02349893 130.15527559 224.14758379 129.98762608 223.24512577 C129.52821841 220.21295845 129.36154915 217.4282218 129.37010193 214.36802673 C129.36958076 212.75569656 129.36958076 212.75569656 129.36904907 211.11079407 C129.37294647 209.94654404 129.37684387 208.78229401 129.38085938 207.58276367 C129.37959676 205.01683964 129.37696415 202.45091602 129.37315369 199.88499451 C129.37247292 199.21203429 129.37179216 198.53907408 129.37109077 197.84572113 C129.35600239 188.43693132 129.21332779 179.02933419 129.07746792 169.62164974 C128.97063224 161.96840659 128.90795775 154.3192851 128.9453125 146.6652832 C128.97781158 139.96870697 128.92529928 133.27883233 128.77429825 126.5837937 C128.69749636 123.04598596 128.66151697 119.51903676 128.72845268 115.98078728 C129.0516375 103.09504575 129.0516375 103.09504575 125.48071289 90.89941406 C119.72418129 84.946559 112.22089941 82.02561253 104.59535027 79.16540909 C99.5313817 77.10707669 94.91432493 74.32246778 90.23071289 71.52441406 C81.12682545 66.34278246 71.9263792 61.35928201 62.67852783 56.44094849 C54.75604918 52.22488238 46.89731609 47.91574142 39.10571289 43.46191406 C29.92043157 38.2142419 20.63125297 33.18072683 11.29321289 28.21191406 C10.63097717 27.85944611 9.96874146 27.50697815 9.28643799 27.14382935 C5.35583816 25.05352672 1.42414068 22.96543836 -2.51928711 20.89941406 C-3.22351807 20.46032715 -3.92774902 20.02124023 -4.65332031 19.56884766 C-6.5313588 18.67176081 -6.5313588 18.67176081 -8.45678711 19.59594727 C-9.13741211 20.04284912 -9.81803711 20.48975098 -10.51928711 20.95019531 C-11.70433838 21.70804321 -11.70433838 21.70804321 -12.91333008 22.48120117 C-13.7732959 23.05233643 -14.63326172 23.62347168 -15.51928711 24.21191406 C-17.41658579 25.4298358 -19.31508697 26.64588569 -21.21459961 27.86035156 C-22.23199219 28.51616211 -23.24938477 29.17197266 -24.29760742 29.84765625 C-29.35196287 33.06657131 -34.47954241 36.162518 -39.60934448 39.25900269 C-42.00480377 40.70559978 -44.39741572 42.15687221 -46.79008484 43.608078 C-48.56398872 44.68395718 -50.33822839 45.75928062 -52.11254883 46.83447266 C-67.98865303 56.45042772 -67.98865303 56.45042772 -83.80444336 66.16503906 C-84.66859863 66.69822754 -85.53275391 67.23141602 -86.4230957 67.78076172 C-88.14491855 68.85426985 -89.85770754 69.94241411 -91.56079102 71.04541016 C-97.15136895 74.62802199 -102.73806564 77.44641014 -108.90332031 79.92431641 C-117.9937452 84.52757656 -117.9937452 84.52757656 -123.35917664 92.66867065 C-123.59161844 96.10364592 -123.47397607 99.38529572 -123.24975586 102.82128906 C-123.20125387 104.16264364 -123.1578262 105.5041892 -123.11889648 106.84585571 C-123.02298253 109.85483845 -122.89550517 112.86048905 -122.74789429 115.86737061 C-122.48830982 121.3015675 -122.33963256 126.7369176 -122.19824219 132.17529297 C-121.97552783 140.51917467 -121.72811344 148.86178205 -121.45288086 157.20410156 C-121.39980381 158.81404967 -121.39980381 158.81404967 -121.34565449 160.45652199 C-121.2012178 164.82030463 -121.05569964 169.18405078 -120.90997314 173.54779053 C-120.65922333 181.0684589 -120.41329357 188.58926056 -120.17553711 196.11035156 C-120.14281708 197.14291832 -120.11009705 198.17548508 -120.0763855 199.23934174 C-119.51875775 217.13201696 -119.34684915 234.99939567 -119.51928711 252.89941406 C-125.45928711 252.89941406 -131.39928711 252.89941406 -137.51928711 252.89941406 C-138.595211 238.02726317 -139.00012198 223.14077431 -139.42839742 208.23852515 C-139.51427792 205.26205577 -139.6018939 202.28563845 -139.68950742 199.30921966 C-139.8965929 192.27400335 -140.10105832 185.23871444 -140.30371094 178.20336914 C-140.51118829 171.00173845 -140.7225772 163.80023044 -140.93599898 156.59877366 C-141.12066546 150.36387013 -141.30312333 144.12890464 -141.48382562 137.89388496 C-141.59109056 134.19291571 -141.69906348 130.49197128 -141.80906868 126.79108238 C-142.04160194 118.94493465 -142.25929172 111.09877037 -142.44136429 103.25124741 C-142.49161585 101.08968738 -142.54511116 98.92819915 -142.60258102 96.766819 C-142.6709225 94.05555339 -142.719309 91.34486663 -142.75927734 88.63305664 C-142.78125466 87.87139285 -142.80323198 87.10972906 -142.82587528 86.32498455 C-142.86386904 81.36770742 -142.86386904 81.36770742 -141.11453247 78.99032593 C-139.35319955 77.78583474 -137.60685852 76.62407103 -135.76538086 75.54394531 C-134.62842773 74.87069214 -134.62842773 74.87069214 -133.46850586 74.18383789 C-132.63963867 73.69810303 -131.81077148 73.21236816 -130.95678711 72.71191406 C-122.93015528 67.9534572 -114.9578282 63.11590903 -107.01928711 58.21191406 C-97.81135413 52.53052519 -88.58327145 46.88450197 -79.33178711 41.27441406 C-78.74407532 40.91796814 -78.15636353 40.56152222 -77.55084229 40.1942749 C-74.64192789 38.43012358 -71.73276433 36.66638365 -68.82348633 34.90283203 C-55.38473624 26.75458441 -41.9667034 18.57329261 -28.58178711 10.33691406 C-26.95539307 9.33615845 -26.95539307 9.33615845 -25.29614258 8.31518555 C-24.26763184 7.68169189 -23.23912109 7.04819824 -22.17944336 6.39550781 C-21.20378418 5.7997998 -20.228125 5.2040918 -19.22290039 4.59033203 C-17.52501347 3.52842443 -15.84730313 2.43277819 -14.20239258 1.29052734 C-13.52192871 0.82243652 -12.84146484 0.3543457 -12.14038086 -0.12792969 C-11.57633545 -0.53648193 -11.01229004 -0.94503418 -10.43115234 -1.3659668 C-6.77368537 -2.77131964 -3.45835642 -1.51083155 0 0 Z " fill="#FFFFFF" transform="translate(163.519287109375,29.1005859375)"/>
<path d="M0 0 C2 1 2 1 2 1 Z " fill="#FFFFFF" transform="translate(156,346)"/>
<path d="M0 0 C2 1 2 1 2 1 Z " fill="#FFFFFF" transform="translate(190,320)"/>
<path d="M0 0 C2 1 2 1 2 1 Z " fill="#FFFFFF" transform="translate(216,303)"/>
<path d="M0 0 C2 1 2 1 2 1 Z " fill="#FFFFFF" transform="translate(234,291)"/>
<path d="" fill="#FFFFFF" transform="translate(0,0)"/>
<path d="M0 0 C2 1 2 1 2 1 Z " fill="#FFFFFF" transform="translate(155,282)"/>
<path d="M0 0 C2 1 2 1 2 1 Z " fill="#FFFFFF" transform="translate(148,277)"/>
<path d="M0 0 C2 1 2 1 2 1 Z " fill="#FFFFFF" transform="translate(195,274)"/>
<path d="M0 0 C2 1 2 1 2 1 Z " fill="#FFFFFF" transform="translate(264,271)"/>
<path d="M0 0 C2 1 2 1 2 1 Z " fill="#FFFFFF" transform="translate(309,267)"/>
<path d="M0 0 C2 1 2 1 2 1 Z " fill="#FFFFFF" transform="translate(169,266)"/>
<path d="M0 0 C2 1 2 1 2 1 Z " fill="#FFFFFF" transform="translate(228,225)"/>
<path d="M0 0 C2 1 2 1 2 1 Z " fill="#FFFFFF" transform="translate(159,186)"/>
<path d="M0 0 C2 1 2 1 2 1 Z " fill="#FFFFFF" transform="translate(170,178)"/>
<path d="M0 0 C2 1 2 1 2 1 Z " fill="#FFFFFF" transform="translate(175,174)"/>
<path d="" fill="#FFFFFF" transform="translate(0,0)"/>
<path d="M0 0 C2 1 2 1 2 1 Z " fill="#FFFFFF" transform="translate(154,163)"/>
<path d="M0 0 C2 1 2 1 2 1 Z " fill="#FFFFFF" transform="translate(110,146)"/>
<path d="M0 0 C2 1 2 1 2 1 Z " fill="#FFFFFF" transform="translate(128,135)"/>
<path d="M0 0 C2 1 2 1 2 1 Z " fill="#FFFFFF" transform="translate(236,132)"/>
<path d="M0 0 C2 1 2 1 2 1 Z " fill="#FFFFFF" transform="translate(146,124)"/>
<path d="M0 0 C2 1 2 1 2 1 Z " fill="#FFFFFF" transform="translate(207,116)"/>
<path d="M0 0 C2 1 2 1 2 1 Z " fill="#FFFFFF" transform="translate(27,103)"/>
<path d="M0 0 C2 1 2 1 2 1 Z " fill="#FFFFFF" transform="translate(298,102)"/>
<path d="M0 0 C2 1 2 1 2 1 Z " fill="#FFFFFF" transform="translate(86,92)"/>
<path d="M0 0 C2 1 2 1 2 1 Z " fill="#FFFFFF" transform="translate(58,84)"/>
<path d="M0 0 C2 1 2 1 2 1 Z " fill="#FFFFFF" transform="translate(215,81)"/>
<path d="M0 0 C2 1 2 1 2 1 Z " fill="#FFFFFF" transform="translate(204,75)"/>
<path d="M0 0 C2 1 2 1 2 1 Z " fill="#FFFFFF" transform="translate(117,73)"/>
<path d="M0 0 C2 1 2 1 2 1 Z " fill="#FFFFFF" transform="translate(179,61)"/>
<path d="M0 0 C2 1 2 1 2 1 Z " fill="#FFFFFF" transform="translate(96,61)"/>
<path d="M0 0 C2 1 2 1 2 1 Z " fill="#FFFFFF" transform="translate(145,56)"/>
<path d="M0 0 C2 1 2 1 2 1 Z " fill="#FFFFFF" transform="translate(212,55)"/>
<path d="M0 0 C2 1 2 1 2 1 Z " fill="#FFFFFF" transform="translate(168,55)"/>
<path d="M0 0 C2 1 2 1 2 1 Z " fill="#FFFFFF" transform="translate(201,49)"/>
<path d="M0 0 C2 1 2 1 2 1 Z " fill="#FFFFFF" transform="translate(157,49)"/>
<path d="M0 0 C2 1 2 1 2 1 Z " fill="#FFFFFF" transform="translate(176,35)"/>
<path d="M0 0 C2 1 2 1 2 1 Z " fill="#FFFFFF" transform="translate(148,29)"/>
<path d="" fill="#FFFFFF" transform="translate(0,0)"/>
<path d="" fill="#FFFFFF" transform="translate(0,0)"/>
<path d="" fill="#FFFFFF" transform="translate(0,0)"/>
<path d="" fill="#FFFFFF" transform="translate(0,0)"/>
<path d="" fill="#FFFFFF" transform="translate(0,0)"/>
<path d="" fill="#FFFFFF" transform="translate(0,0)"/>
<path d="" fill="#FFFFFF" transform="translate(0,0)"/>
<path d="" fill="#FFFFFF" transform="translate(0,0)"/>
<path d="" fill="#FFFFFF" transform="translate(0,0)"/>
<path d="" fill="#FFFFFF" transform="translate(0,0)"/>
<path d="" fill="#FFFFFF" transform="translate(0,0)"/>
<path d="" fill="#FFFFFF" transform="translate(0,0)"/>
<path d="" fill="#FFFFFF" transform="translate(0,0)"/>
<path d="" fill="#FFFFFF" transform="translate(0,0)"/>
<path d="" fill="#FFFFFF" transform="translate(0,0)"/>
<path d="" fill="#FFFFFF" transform="translate(0,0)"/>
<path d="" fill="#FFFFFF" transform="translate(0,0)"/>
<path d="" fill="#FFFFFF" transform="translate(0,0)"/>
<path d="" fill="#FFFFFF" transform="translate(0,0)"/>
<path d="" fill="#FFFFFF" transform="translate(0,0)"/>
<path d="" fill="#FFFFFF" transform="translate(0,0)"/>
<path d="" fill="#FFFFFF" transform="translate(0,0)"/>
<path d="" fill="#FFFFFF" transform="translate(0,0)"/>
<path d="" fill="#FFFFFF" transform="translate(0,0)"/>
<path d="" fill="#FFFFFF" transform="translate(0,0)"/>
<path d="" fill="#FFFFFF" transform="translate(0,0)"/>
<path d="" fill="#FFFFFF" transform="translate(0,0)"/>
<path d="" fill="#FFFFFF" transform="translate(0,0)"/>
<path d="" fill="#FFFFFF" transform="translate(0,0)"/>
<path d="" fill="#FFFFFF" transform="translate(0,0)"/>
<path d="" fill="#FFFFFF" transform="translate(0,0)"/>
<path d="" fill="#FFFFFF" transform="translate(0,0)"/>
<path d="" fill="#FFFFFF" transform="translate(0,0)"/>
<path d="" fill="#FFFFFF" transform="translate(0,0)"/>
<path d="" fill="#FFFFFF" transform="translate(0,0)"/>
<path d="" fill="#FFFFFF" transform="translate(0,0)"/>
<path d="" fill="#FFFFFF" transform="translate(0,0)"/>
<path d="" fill="#FFFFFF" transform="translate(0,0)"/>
<path d="" fill="#FFFFFF" transform="translate(0,0)"/>
<path d="" fill="#FFFFFF" transform="translate(0,0)"/>
<path d="" fill="#FFFFFF" transform="translate(0,0)"/>
<path d="" fill="#FFFFFF" transform="translate(0,0)"/>
<path d="" fill="#FFFFFF" transform="translate(0,0)"/>
<path d="" fill="#FFFFFF" transform="translate(0,0)"/>
<path d="" fill="#FFFFFF" transform="translate(0,0)"/>
<path d="" fill="#FFFFFF" transform="translate(0,0)"/>
<path d="" fill="#FFFFFF" transform="translate(0,0)"/>
<path d="" fill="#FFFFFF" transform="translate(0,0)"/>
<path d="" fill="#FFFFFF" transform="translate(0,0)"/>
<path d="" fill="#FFFFFF" transform="translate(0,0)"/>
<path d="" fill="#FFFFFF" transform="translate(0,0)"/>
<path d="" fill="#FFFFFF" transform="translate(0,0)"/>
<path d="" fill="#FFFFFF" transform="translate(0,0)"/>
<path d="" fill="#FFFFFF" transform="translate(0,0)"/>
<path d="" fill="#FFFFFF" transform="translate(0,0)"/>
<path d="" fill="#FFFFFF" transform="translate(0,0)"/>
<path d="" fill="#FFFFFF" transform="translate(0,0)"/>
<path d="" fill="#FFFFFF" transform="translate(0,0)"/>
<path d="" fill="#FFFFFF" transform="translate(0,0)"/>
<path d="" fill="#FFFFFF" transform="translate(0,0)"/>
<path d="" fill="#FFFFFF" transform="translate(0,0)"/>
<path d="" fill="#FFFFFF" transform="translate(0,0)"/>
<path d="" fill="#FFFFFF" transform="translate(0,0)"/>
<path d="" fill="#FFFFFF" transform="translate(0,0)"/>
<path d="" fill="#FFFFFF" transform="translate(0,0)"/>
<path d="" fill="#FFFFFF" transform="translate(0,0)"/>
<path d="" fill="#FFFFFF" transform="translate(0,0)"/>
<path d="" fill="#FFFFFF" transform="translate(0,0)"/>
<path d="" fill="#FFFFFF" transform="translate(0,0)"/>
<path d="" fill="#FFFFFF" transform="translate(0,0)"/>
<path d="" fill="#FFFFFF" transform="translate(0,0)"/>
<path d="" fill="#FFFFFF" transform="translate(0,0)"/>
<path d="" fill="#FFFFFF" transform="translate(0,0)"/>
<path d="" fill="#FFFFFF" transform="translate(0,0)"/>
<path d="" fill="#FFFFFF" transform="translate(0,0)"/>
<path d="" fill="#FFFFFF" transform="translate(0,0)"/>
<path d="" fill="#FFFFFF" transform="translate(0,0)"/>
<path d="" fill="#FFFFFF" transform="translate(0,0)"/>
<path d="" fill="#FFFFFF" transform="translate(0,0)"/>
<path d="" fill="#FFFFFF" transform="translate(0,0)"/>
<path d="" fill="#FFFFFF" transform="translate(0,0)"/>
<path d="" fill="#FFFFFF" transform="translate(0,0)"/>
<path d="" fill="#FFFFFF" transform="translate(0,0)"/>
<path d="" fill="#FFFFFF" transform="translate(0,0)"/>
<path d="" fill="#FFFFFF" transform="translate(0,0)"/>
<path d="" fill="#FFFFFF" transform="translate(0,0)"/>
<path d="" fill="#FFFFFF" transform="translate(0,0)"/>
<path d="" fill="#FFFFFF" transform="translate(0,0)"/>
<path d="" fill="#FFFFFF" transform="translate(0,0)"/>
<path d="" fill="#FFFFFF" transform="translate(0,0)"/>
<path d="" fill="#FFFFFF" transform="translate(0,0)"/>
<path d="" fill="#FFFFFF" transform="translate(0,0)"/>
<path d="" fill="#FFFFFF" transform="translate(0,0)"/>
<path d="" fill="#FFFFFF" transform="translate(0,0)"/>
<path d="" fill="#FFFFFF" transform="translate(0,0)"/>
<path d="" fill="#FFFFFF" transform="translate(0,0)"/>
<path d="" fill="#FFFFFF" transform="translate(0,0)"/>
<path d="" fill="#FFFFFF" transform="translate(0,0)"/>
<path d="" fill="#FFFFFF" transform="translate(0,0)"/>
<path d="" fill="#FFFFFF" transform="translate(0,0)"/>
<path d="" fill="#FFFFFF" transform="translate(0,0)"/>
<path d="" fill="#FFFFFF" transform="translate(0,0)"/>
<path d="" fill="#FFFFFF" transform="translate(0,0)"/>
<path d="" fill="#FFFFFF" transform="translate(0,0)"/>
<path d="" fill="#FFFFFF" transform="translate(0,0)"/>
<path d="" fill="#FFFFFF" transform="translate(0,0)"/>
<path d="" fill="#FFFFFF" transform="translate(0,0)"/>
<path d="" fill="#FFFFFF" transform="translate(0,0)"/>
<path d="" fill="#FFFFFF" transform="translate(0,0)"/>
<path d="" fill="#FFFFFF" transform="translate(0,0)"/>
<path d="" fill="#FFFFFF" transform="translate(0,0)"/>
<path d="" fill="#FFFFFF" transform="translate(0,0)"/>
<path d="" fill="#FFFFFF" transform="translate(0,0)"/>
<path d="" fill="#FFFFFF" transform="translate(0,0)"/>
<path d="" fill="#FFFFFF" transform="translate(0,0)"/>
<path d="" fill="#FFFFFF" transform="translate(0,0)"/>
<path d="" fill="#FFFFFF" transform="translate(0,0)"/>
<path d="" fill="#FFFFFF" transform="translate(0,0)"/>
<path d="" fill="#FFFFFF" transform="translate(0,0)"/>
<path d="" fill="#FFFFFF" transform="translate(0,0)"/>
<path d="" fill="#FFFFFF" transform="translate(0,0)"/>
<path d="" fill="#FFFFFF" transform="translate(0,0)"/>
<path d="" fill="#FFFFFF" transform="translate(0,0)"/>
<path d="" fill="#FFFFFF" transform="translate(0,0)"/>
<path d="" fill="#FFFFFF" transform="translate(0,0)"/>
<path d="" fill="#FFFFFF" transform="translate(0,0)"/>
<path d="" fill="#FFFFFF" transform="translate(0,0)"/>
<path d="" fill="#FFFFFF" transform="translate(0,0)"/>
<path d="" fill="#FFFFFF" transform="translate(0,0)"/>
<path d="" fill="#FFFFFF" transform="translate(0,0)"/>
<path d="" fill="#FFFFFF" transform="translate(0,0)"/>
<path d="" fill="#FFFFFF" transform="translate(0,0)"/>
<path d="" fill="#FFFFFF" transform="translate(0,0)"/>
<path d="" fill="#FFFFFF" transform="translate(0,0)"/>
<path d="" fill="#FFFFFF" transform="translate(0,0)"/>
<path d="" fill="#FFFFFF" transform="translate(0,0)"/>
<path d="" fill="#FFFFFF" transform="translate(0,0)"/>
<path d="" fill="#FFFFFF" transform="translate(0,0)"/>
<path d="" fill="#FFFFFF" transform="translate(0,0)"/>
<path d="" fill="#FFFFFF" transform="translate(0,0)"/>
<path d="" fill="#FFFFFF" transform="translate(0,0)"/>
<path d="" fill="#FFFFFF" transform="translate(0,0)"/>
<path d="" fill="#FFFFFF" transform="translate(0,0)"/>
<path d="" fill="#FFFFFF" transform="translate(0,0)"/>
<path d="" fill="#FFFFFF" transform="translate(0,0)"/>
<path d="" fill="#FFFFFF" transform="translate(0,0)"/>
<path d="" fill="#FFFFFF" transform="translate(0,0)"/>
<path d="" fill="#FFFFFF" transform="translate(0,0)"/>
<path d="" fill="#FFFFFF" transform="translate(0,0)"/>
<path d="" fill="#FFFFFF" transform="translate(0,0)"/>
<path d="" fill="#FFFFFF" transform="translate(0,0)"/>
<path d="" fill="#FFFFFF" transform="translate(0,0)"/>
<path d="" fill="#FFFFFF" transform="translate(0,0)"/>
<path d="" fill="#FFFFFF" transform="translate(0,0)"/>
<path d="" fill="#FFFFFF" transform="translate(0,0)"/>
<path d="" fill="#FFFFFF" transform="translate(0,0)"/>
<path d="" fill="#FFFFFF" transform="translate(0,0)"/>
<path d="" fill="#FFFFFF" transform="translate(0,0)"/>
<path d="" fill="#FFFFFF" transform="translate(0,0)"/>
<path d="" fill="#FFFFFF" transform="translate(0,0)"/>
<path d="" fill="#FFFFFF" transform="translate(0,0)"/>
<path d="" fill="#FFFFFF" transform="translate(0,0)"/>
<path d="" fill="#FFFFFF" transform="translate(0,0)"/>
<path d="" fill="#FFFFFF" transform="translate(0,0)"/>
<path d="" fill="#FFFFFF" transform="translate(0,0)"/>
<path d="" fill="#FFFFFF" transform="translate(0,0)"/>
<path d="" fill="#FFFFFF" transform="translate(0,0)"/>
<path d="" fill="#FFFFFF" transform="translate(0,0)"/>
<path d="" fill="#FFFFFF" transform="translate(0,0)"/>
<path d="" fill="#FFFFFF" transform="translate(0,0)"/>
<path d="" fill="#FFFFFF" transform="translate(0,0)"/>
<path d="" fill="#FFFFFF" transform="translate(0,0)"/>
<path d="" fill="#FFFFFF" transform="translate(0,0)"/>
<path d="" fill="#FFFFFF" transform="translate(0,0)"/>
<path d="" fill="#FFFFFF" transform="translate(0,0)"/>
<path d="" fill="#FFFFFF" transform="translate(0,0)"/>
<path d="" fill="#FFFFFF" transform="translate(0,0)"/>
<path d="" fill="#FFFFFF" transform="translate(0,0)"/>
<path d="" fill="#FFFFFF" transform="translate(0,0)"/>
<path d="" fill="#FFFFFF" transform="translate(0,0)"/>
<path d="" fill="#FFFFFF" transform="translate(0,0)"/>
<path d="" fill="#FFFFFF" transform="translate(0,0)"/>
<path d="" fill="#FFFFFF" transform="translate(0,0)"/>
<path d="" fill="#FFFFFF" transform="translate(0,0)"/>
<path d="" fill="#FFFFFF" transform="translate(0,0)"/>
<path d="" fill="#FFFFFF" transform="translate(0,0)"/>
<path d="" fill="#FFFFFF" transform="translate(0,0)"/>
<path d="" fill="#FFFFFF" transform="translate(0,0)"/>
<path d="" fill="#FFFFFF" transform="translate(0,0)"/>
<path d="" fill="#FFFFFF" transform="translate(0,0)"/>
<path d="" fill="#FFFFFF" transform="translate(0,0)"/>
<path d="" fill="#FFFFFF" transform="translate(0,0)"/>
<path d="" fill="#FFFFFF" transform="translate(0,0)"/>
<path d="" fill="#FFFFFF" transform="translate(0,0)"/>
<path d="" fill="#FFFFFF" transform="translate(0,0)"/>
<path d="" fill="#FFFFFF" transform="translate(0,0)"/>
<path d="" fill="#FFFFFF" transform="translate(0,0)"/>
<path d="" fill="#FFFFFF" transform="translate(0,0)"/>
<path d="" fill="#FFFFFF" transform="translate(0,0)"/>
<path d="" fill="#FFFFFF" transform="translate(0,0)"/>
<path d="" fill="#FFFFFF" transform="translate(0,0)"/>
<path d="" fill="#FFFFFF" transform="translate(0,0)"/>
<path d="" fill="#FFFFFF" transform="translate(0,0)"/>
<path d="" fill="#FFFFFF" transform="translate(0,0)"/>
<path d="" fill="#FFFFFF" transform="translate(0,0)"/>
<path d="" fill="#FFFFFF" transform="translate(0,0)"/>
<path d="" fill="#FFFFFF" transform="translate(0,0)"/>
<path d="" fill="#FFFFFF" transform="translate(0,0)"/>
<path d="" fill="#FFFFFF" transform="translate(0,0)"/>
<path d="" fill="#FFFFFF" transform="translate(0,0)"/>
<path d="" fill="#FFFFFF" transform="translate(0,0)"/>
<path d="" fill="#FFFFFF" transform="translate(0,0)"/>
<path d="" fill="#FFFFFF" transform="translate(0,0)"/>
<path d="" fill="#FFFFFF" transform="translate(0,0)"/>
<path d="" fill="#FFFFFF" transform="translate(0,0)"/>
<path d="" fill="#FFFFFF" transform="translate(0,0)"/>
<path d="" fill="#FFFFFF" transform="translate(0,0)"/>
<path d="" fill="#FFFFFF" transform="translate(0,0)"/>
<path d="" fill="#FFFFFF" transform="translate(0,0)"/>
<path d="" fill="#FFFFFF" transform="translate(0,0)"/>
<path d="" fill="#FFFFFF" transform="translate(0,0)"/>
<path d="" fill="#FFFFFF" transform="translate(0,0)"/>
<path d="" fill="#FFFFFF" transform="translate(0,0)"/>
<path d="" fill="#FFFFFF" transform="translate(0,0)"/>
<path d="" fill="#FFFFFF" transform="translate(0,0)"/>
<path d="" fill="#FFFFFF" transform="translate(0,0)"/>
<path d="" fill="#FFFFFF" transform="translate(0,0)"/>
<path d="" fill="#FFFFFF" transform="translate(0,0)"/>
<path d="" fill="#FFFFFF" transform="translate(0,0)"/>
<path d="" fill="#FFFFFF" transform="translate(0,0)"/>
<path d="" fill="#FFFFFF" transform="translate(0,0)"/>
<path d="" fill="#FFFFFF" transform="translate(0,0)"/>
<path d="" fill="#FFFFFF" transform="translate(0,0)"/>
<path d="" fill="#FFFFFF" transform="translate(0,0)"/>
<path d="" fill="#FFFFFF" transform="translate(0,0)"/>
<path d="" fill="#FFFFFF" transform="translate(0,0)"/>
<path d="" fill="#FFFFFF" transform="translate(0,0)"/>
<path d="" fill="#FFFFFF" transform="translate(0,0)"/>
<path d="" fill="#FFFFFF" transform="translate(0,0)"/>
<path d="" fill="#FFFFFF" transform="translate(0,0)"/>
<path d="" fill="#FFFFFF" transform="translate(0,0)"/>
<path d="" fill="#FFFFFF" transform="translate(0,0)"/>
<path d="" fill="#FFFFFF" transform="translate(0,0)"/>
<path d="" fill="#FFFFFF" transform="translate(0,0)"/>
<path d="" fill="#FFFFFF" transform="translate(0,0)"/>
<path d="" fill="#FFFFFF" transform="translate(0,0)"/>
<path d="" fill="#FFFFFF" transform="translate(0,0)"/>
<path d="" fill="#FFFFFF" transform="translate(0,0)"/>
<path d="" fill="#FFFFFF" transform="translate(0,0)"/>
<path d="" fill="#FFFFFF" transform="translate(0,0)"/>
<path d="" fill="#FFFFFF" transform="translate(0,0)"/>
<path d="" fill="#FFFFFF" transform="translate(0,0)"/>
<path d="" fill="#FFFFFF" transform="translate(0,0)"/>
<path d="" fill="#FFFFFF" transform="translate(0,0)"/>
<path d="" fill="#FFFFFF" transform="translate(0,0)"/>
<path d="" fill="#FFFFFF" transform="translate(0,0)"/>
<path d="" fill="#FFFFFF" transform="translate(0,0)"/>
<path d="" fill="#FFFFFF" transform="translate(0,0)"/>
<path d="" fill="#FFFFFF" transform="translate(0,0)"/>
<path d="" fill="#FFFFFF" transform="translate(0,0)"/>
<path d="" fill="#FFFFFF" transform="translate(0,0)"/>
<path d="" fill="#FFFFFF" transform="translate(0,0)"/>
<path d="" fill="#FFFFFF" transform="translate(0,0)"/>
<path d="" fill="#FFFFFF" transform="translate(0,0)"/>
<path d="" fill="#FFFFFF" transform="translate(0,0)"/>
<path d="" fill="#FFFFFF" transform="translate(0,0)"/>
<path d="" fill="#FFFFFF" transform="translate(0,0)"/>
<path d="" fill="#FFFFFF" transform="translate(0,0)"/>
<path d="" fill="#FFFFFF" transform="translate(0,0)"/>
<path d="" fill="#FFFFFF" transform="translate(0,0)"/>
<path d="" fill="#FFFFFF" transform="translate(0,0)"/>
<path d="" fill="#FFFFFF" transform="translate(0,0)"/>
<path d="" fill="#FFFFFF" transform="translate(0,0)"/>
<path d="" fill="#FFFFFF" transform="translate(0,0)"/>
<path d="" fill="#FFFFFF" transform="translate(0,0)"/>
<path d="" fill="#FFFFFF" transform="translate(0,0)"/>
<path d="" fill="#FFFFFF" transform="translate(0,0)"/>
<path d="" fill="#FFFFFF" transform="translate(0,0)"/>
<path d="" fill="#FFFFFF" transform="translate(0,0)"/>
<path d="" fill="#FFFFFF" transform="translate(0,0)"/>
<path d="" fill="#FFFFFF" transform="translate(0,0)"/>
<path d="" fill="#FFFFFF" transform="translate(0,0)"/>
<path d="" fill="#FFFFFF" transform="translate(0,0)"/>
<path d="" fill="#FFFFFF" transform="translate(0,0)"/>
<path d="" fill="#FFFFFF" transform="translate(0,0)"/>
<path d="" fill="#FFFFFF" transform="translate(0,0)"/>
<path d="" fill="#FFFFFF" transform="translate(0,0)"/>
<path d="" fill="#FFFFFF" transform="translate(0,0)"/>
<path d="" fill="#FFFFFF" transform="translate(0,0)"/>
<path d="" fill="#FFFFFF" transform="translate(0,0)"/>
<path d="" fill="#FFFFFF" transform="translate(0,0)"/>
<path d="" fill="#FFFFFF" transform="translate(0,0)"/>
<path d="" fill="#FFFFFF" transform="translate(0,0)"/>
<path d="" fill="#FFFFFF" transform="translate(0,0)"/>
<path d="" fill="#FFFFFF" transform="translate(0,0)"/>
<path d="" fill="#FFFFFF" transform="translate(0,0)"/>
<path d="" fill="#FFFFFF" transform="translate(0,0)"/>
<path d="" fill="#FFFFFF" transform="translate(0,0)"/>
<path d="" fill="#FFFFFF" transform="translate(0,0)"/>
<path d="" fill="#FFFFFF" transform="translate(0,0)"/>
<path d="" fill="#FFFFFF" transform="translate(0,0)"/>
<path d="" fill="#FFFFFF" transform="translate(0,0)"/>
<path d="" fill="#FFFFFF" transform="translate(0,0)"/>
<path d="" fill="#FFFFFF" transform="translate(0,0)"/>
<path d="" fill="#FFFFFF" transform="translate(0,0)"/>
<path d="" fill="#FFFFFF" transform="translate(0,0)"/>
<path d="" fill="#FFFFFF" transform="translate(0,0)"/>
<path d="" fill="#FFFFFF" transform="translate(0,0)"/>
<path d="" fill="#FFFFFF" transform="translate(0,0)"/>
<path d="" fill="#FFFFFF" transform="translate(0,0)"/>
<path d="" fill="#FFFFFF" transform="translate(0,0)"/>
<path d="" fill="#FFFFFF" transform="translate(0,0)"/>
<path d="" fill="#FFFFFF" transform="translate(0,0)"/>
<path d="" fill="#FFFFFF" transform="translate(0,0)"/>
<path d="" fill="#FFFFFF" transform="translate(0,0)"/>
<path d="" fill="#FFFFFF" transform="translate(0,0)"/>
<path d="" fill="#FFFFFF" transform="translate(0,0)"/>
<path d="" fill="#FFFFFF" transform="translate(0,0)"/>
<path d="" fill="#FFFFFF" transform="translate(0,0)"/>
<path d="" fill="#FFFFFF" transform="translate(0,0)"/>
<path d="" fill="#FFFFFF" transform="translate(0,0)"/>
<path d="" fill="#FFFFFF" transform="translate(0,0)"/>
<path d="" fill="#FFFFFF" transform="translate(0,0)"/>
<path d="" fill="#FFFFFF" transform="translate(0,0)"/>
<path d="" fill="#FFFFFF" transform="translate(0,0)"/>
<path d="" fill="#FFFFFF" transform="translate(0,0)"/>
<path d="" fill="#FFFFFF" transform="translate(0,0)"/>
<path d="" fill="#FFFFFF" transform="translate(0,0)"/>
<path d="" fill="#FFFFFF" transform="translate(0,0)"/>
<path d="" fill="#FFFFFF" transform="translate(0,0)"/>
<path d="" fill="#FFFFFF" transform="translate(0,0)"/>
<path d="" fill="#FFFFFF" transform="translate(0,0)"/>
<path d="" fill="#FFFFFF" transform="translate(0,0)"/>
<path d="" fill="#FFFFFF" transform="translate(0,0)"/>
<path d="" fill="#FFFFFF" transform="translate(0,0)"/>
<path d="" fill="#FFFFFF" transform="translate(0,0)"/>
<path d="" fill="#FFFFFF" transform="translate(0,0)"/>
<path d="" fill="#FFFFFF" transform="translate(0,0)"/>
<path d="" fill="#FFFFFF" transform="translate(0,0)"/>
<path d="" fill="#FFFFFF" transform="translate(0,0)"/>
<path d="" fill="#FFFFFF" transform="translate(0,0)"/>
<path d="" fill="#FFFFFF" transform="translate(0,0)"/>
<path d="" fill="#FFFFFF" transform="translate(0,0)"/>
<path d="" fill="#FFFFFF" transform="translate(0,0)"/>
<path d="" fill="#FFFFFF" transform="translate(0,0)"/>
<path d="" fill="#FFFFFF" transform="translate(0,0)"/>
<path d="" fill="#FFFFFF" transform="translate(0,0)"/>
<path d="" fill="#FFFFFF" transform="translate(0,0)"/>
<path d="" fill="#FFFFFF" transform="translate(0,0)"/>
<path d="" fill="#FFFFFF" transform="translate(0,0)"/>
<path d="" fill="#FFFFFF" transform="translate(0,0)"/>
<path d="" fill="#FFFFFF" transform="translate(0,0)"/>
<path d="" fill="#FFFFFF" transform="translate(0,0)"/>
<path d="" fill="#FFFFFF" transform="translate(0,0)"/>
<path d="" fill="#FFFFFF" transform="translate(0,0)"/>
<path d="" fill="#FFFFFF" transform="translate(0,0)"/>
<path d="" fill="#FFFFFF" transform="translate(0,0)"/>
<path d="" fill="#FFFFFF" transform="translate(0,0)"/>
<path d="" fill="#FFFFFF" transform="translate(0,0)"/>
<path d="" fill="#FFFFFF" transform="translate(0,0)"/>
<path d="" fill="#FFFFFF" transform="translate(0,0)"/>
<path d="" fill="#FFFFFF" transform="translate(0,0)"/>
<path d="" fill="#FFFFFF" transform="translate(0,0)"/>
<path d="" fill="#FFFFFF" transform="translate(0,0)"/>
<path d="" fill="#FFFFFF" transform="translate(0,0)"/>
<path d="" fill="#FFFFFF" transform="translate(0,0)"/>
<path d="" fill="#FFFFFF" transform="translate(0,0)"/>
<path d="" fill="#FFFFFF" transform="translate(0,0)"/>
<path d="" fill="#FFFFFF" transform="translate(0,0)"/>
<path d="" fill="#FFFFFF" transform="translate(0,0)"/>
<path d="" fill="#FFFFFF" transform="translate(0,0)"/>
<path d="" fill="#FFFFFF" transform="translate(0,0)"/>
<path d="" fill="#FFFFFF" transform="translate(0,0)"/>
<path d="" fill="#FFFFFF" transform="translate(0,0)"/>
<path d="" fill="#FFFFFF" transform="translate(0,0)"/>
<path d="" fill="#FFFFFF" transform="translate(0,0)"/>
<path d="" fill="#FFFFFF" transform="translate(0,0)"/>
<path d="" fill="#FFFFFF" transform="translate(0,0)"/>
<path d="" fill="#FFFFFF" transform="translate(0,0)"/>
<path d="" fill="#FFFFFF" transform="translate(0,0)"/>
<path d="" fill="#FFFFFF" transform="translate(0,0)"/>
<path d="" fill="#FFFFFF" transform="translate(0,0)"/>
<path d="" fill="#FFFFFF" transform="translate(0,0)"/>
<path d="" fill="#FFFFFF" transform="translate(0,0)"/>
<path d="" fill="#FFFFFF" transform="translate(0,0)"/>
<path d="" fill="#FFFFFF" transform="translate(0,0)"/>
<path d="" fill="#FFFFFF" transform="translate(0,0)"/>
<path d="" fill="#FFFFFF" transform="translate(0,0)"/>
<path d="" fill="#FFFFFF" transform="translate(0,0)"/>
<path d="" fill="#FFFFFF" transform="translate(0,0)"/>
<path d="" fill="#FFFFFF" transform="translate(0,0)"/>
<path d="" fill="#FFFFFF" transform="translate(0,0)"/>
<path d="" fill="#FFFFFF" transform="translate(0,0)"/>
<path d="" fill="#FFFFFF" transform="translate(0,0)"/>
<path d="" fill="#FFFFFF" transform="translate(0,0)"/>
<path d="" fill="#FFFFFF" transform="translate(0,0)"/>
<path d="" fill="#FFFFFF" transform="translate(0,0)"/>
<path d="" fill="#FFFFFF" transform="translate(0,0)"/>
<path d="" fill="#FFFFFF" transform="translate(0,0)"/>
<path d="" fill="#FFFFFF" transform="translate(0,0)"/>
<path d="" fill="#FFFFFF" transform="translate(0,0)"/>
<path d="" fill="#FFFFFF" transform="translate(0,0)"/>
<path d="" fill="#FFFFFF" transform="translate(0,0)"/>
<path d="" fill="#FFFFFF" transform="translate(0,0)"/>
<path d="" fill="#FFFFFF" transform="translate(0,0)"/>
<path d="" fill="#FFFFFF" transform="translate(0,0)"/>
<path d="" fill="#FFFFFF" transform="translate(0,0)"/>
<path d="" fill="#FFFFFF" transform="translate(0,0)"/>
<path d="" fill="#FFFFFF" transform="translate(0,0)"/>
<path d="" fill="#FFFFFF" transform="translate(0,0)"/>
<path d="" fill="#FFFFFF" transform="translate(0,0)"/>
<path d="" fill="#FFFFFF" transform="translate(0,0)"/>
<path d="" fill="#FFFFFF" transform="translate(0,0)"/>
<path d="" fill="#FFFFFF" transform="translate(0,0)"/>
<path d="" fill="#FFFFFF" transform="translate(0,0)"/>
<path d="" fill="#FFFFFF" transform="translate(0,0)"/>
<path d="" fill="#FFFFFF" transform="translate(0,0)"/>
<path d="" fill="#FFFFFF" transform="translate(0,0)"/>
<path d="" fill="#FFFFFF" transform="translate(0,0)"/>
<path d="" fill="#FFFFFF" transform="translate(0,0)"/>
<path d="" fill="#FFFFFF" transform="translate(0,0)"/>
<path d="" fill="#FFFFFF" transform="translate(0,0)"/>
<path d="" fill="#FFFFFF" transform="translate(0,0)"/>
<path d="" fill="#FFFFFF" transform="translate(0,0)"/>
<path d="" fill="#FFFFFF" transform="translate(0,0)"/>
<path d="" fill="#FFFFFF" transform="translate(0,0)"/>
<path d="" fill="#FFFFFF" transform="translate(0,0)"/>
<path d="" fill="#FFFFFF" transform="translate(0,0)"/>
<path d="" fill="#FFFFFF" transform="translate(0,0)"/>
<path d="" fill="#FFFFFF" transform="translate(0,0)"/>
<path d="" fill="#FFFFFF" transform="translate(0,0)"/>
<path d="" fill="#FFFFFF" transform="translate(0,0)"/>
<path d="" fill="#FFFFFF" transform="translate(0,0)"/>
<path d="" fill="#FFFFFF" transform="translate(0,0)"/>
<path d="" fill="#FFFFFF" transform="translate(0,0)"/>
<path d="" fill="#FFFFFF" transform="translate(0,0)"/>
<path d="" fill="#FFFFFF" transform="translate(0,0)"/>
<path d="" fill="#FFFFFF" transform="translate(0,0)"/>
<path d="" fill="#FFFFFF" transform="translate(0,0)"/>
<path d="" fill="#FFFFFF" transform="translate(0,0)"/>
<path d="" fill="#FFFFFF" transform="translate(0,0)"/>
<path d="" fill="#FFFFFF" transform="translate(0,0)"/>
<path d="" fill="#FFFFFF" transform="translate(0,0)"/>
<path d="" fill="#FFFFFF" transform="translate(0,0)"/>
<path d="" fill="#FFFFFF" transform="translate(0,0)"/>
<path d="" fill="#FFFFFF" transform="translate(0,0)"/>
<path d="" fill="#FFFFFF" transform="translate(0,0)"/>
<path d="" fill="#FFFFFF" transform="translate(0,0)"/>
<path d="" fill="#FFFFFF" transform="translate(0,0)"/>
<path d="" fill="#FFFFFF" transform="translate(0,0)"/>
<path d="" fill="#FFFFFF" transform="translate(0,0)"/>
<path d="" fill="#FFFFFF" transform="translate(0,0)"/>
<path d="" fill="#FFFFFF" transform="translate(0,0)"/>
<path d="" fill="#FFFFFF" transform="translate(0,0)"/>
<path d="" fill="#FFFFFF" transform="translate(0,0)"/>
<path d="" fill="#FFFFFF" transform="translate(0,0)"/>
<path d="" fill="#FFFFFF" transform="translate(0,0)"/>
<path d="" fill="#FFFFFF" transform="translate(0,0)"/>
<path d="" fill="#FFFFFF" transform="translate(0,0)"/>
<path d="" fill="#FFFFFF" transform="translate(0,0)"/>
<path d="" fill="#FFFFFF" transform="translate(0,0)"/>
<path d="" fill="#FFFFFF" transform="translate(0,0)"/>
<path d="" fill="#FFFFFF" transform="translate(0,0)"/>
<path d="" fill="#FFFFFF" transform="translate(0,0)"/>
<path d="" fill="#FFFFFF" transform="translate(0,0)"/>
<path d="" fill="#FFFFFF" transform="translate(0,0)"/>
<path d="" fill="#FFFFFF" transform="translate(0,0)"/>
<path d="" fill="#FFFFFF" transform="translate(0,0)"/>
<path d="" fill="#FFFFFF" transform="translate(0,0)"/>
<path d="" fill="#FFFFFF" transform="translate(0,0)"/>
<path d="" fill="#FFFFFF" transform="translate(0,0)"/>
<path d="" fill="#FFFFFF" transform="translate(0,0)"/>
<path d="" fill="#FFFFFF" transform="translate(0,0)"/>
<path d="" fill="#FFFFFF" transform="translate(0,0)"/>
<path d="" fill="#FFFFFF" transform="translate(0,0)"/>
<path d="" fill="#FFFFFF" transform="translate(0,0)"/>
<path d="" fill="#FFFFFF" transform="translate(0,0)"/>
<path d="" fill="#FFFFFF" transform="translate(0,0)"/>
<path d="" fill="#FFFFFF" transform="translate(0,0)"/>
<path d="" fill="#FFFFFF" transform="translate(0,0)"/>
<path d="" fill="#FFFFFF" transform="translate(0,0)"/>
<path d="" fill="#FFFFFF" transform="translate(0,0)"/>
<path d="" fill="#FFFFFF" transform="translate(0,0)"/>
<path d="" fill="#FFFFFF" transform="translate(0,0)"/>
<path d="" fill="#FFFFFF" transform="translate(0,0)"/>
<path d="" fill="#FFFFFF" transform="translate(0,0)"/>
<path d="" fill="#FFFFFF" transform="translate(0,0)"/>
<path d="" fill="#FFFFFF" transform="translate(0,0)"/>
<path d="" fill="#FFFFFF" transform="translate(0,0)"/>
<path d="" fill="#FFFFFF" transform="translate(0,0)"/>
<path d="" fill="#FFFFFF" transform="translate(0,0)"/>
<path d="" fill="#FFFFFF" transform="translate(0,0)"/>
<path d="" fill="#FFFFFF" transform="translate(0,0)"/>
<path d="" fill="#FFFFFF" transform="translate(0,0)"/>
<path d="" fill="#FFFFFF" transform="translate(0,0)"/>
<path d="" fill="#FFFFFF" transform="translate(0,0)"/>
<path d="" fill="#FFFFFF" transform="translate(0,0)"/>
<path d="" fill="#FFFFFF" transform="translate(0,0)"/>
<path d="" fill="#FFFFFF" transform="translate(0,0)"/>
<path d="" fill="#FFFFFF" transform="translate(0,0)"/>
<path d="" fill="#FFFFFF" transform="translate(0,0)"/>
<path d="" fill="#FFFFFF" transform="translate(0,0)"/>
<path d="" fill="#FFFFFF" transform="translate(0,0)"/>
<path d="" fill="#FFFFFF" transform="translate(0,0)"/>
<path d="" fill="#FFFFFF" transform="translate(0,0)"/>
<path d="" fill="#FFFFFF" transform="translate(0,0)"/>
<path d="" fill="#FFFFFF" transform="translate(0,0)"/>
<path d="" fill="#FFFFFF" transform="translate(0,0)"/>
<path d="" fill="#FFFFFF" transform="translate(0,0)"/>
<path d="" fill="#FFFFFF" transform="translate(0,0)"/>
<path d="" fill="#FFFFFF" transform="translate(0,0)"/>
<path d="" fill="#FFFFFF" transform="translate(0,0)"/>
<path d="" fill="#FFFFFF" transform="translate(0,0)"/>
<path d="" fill="#FFFFFF" transform="translate(0,0)"/>
<path d="" fill="#FFFFFF" transform="translate(0,0)"/>
<path d="" fill="#FFFFFF" transform="translate(0,0)"/>
<path d="" fill="#FFFFFF" transform="translate(0,0)"/>
<path d="" fill="#FFFFFF" transform="translate(0,0)"/>
<path d="" fill="#FFFFFF" transform="translate(0,0)"/>
<path d="" fill="#FFFFFF" transform="translate(0,0)"/>
<path d="" fill="#FFFFFF" transform="translate(0,0)"/>
<path d="" fill="#FFFFFF" transform="translate(0,0)"/>
<path d="" fill="#FFFFFF" transform="translate(0,0)"/>
<path d="" fill="#FFFFFF" transform="translate(0,0)"/>
<path d="" fill="#FFFFFF" transform="translate(0,0)"/>
<path d="" fill="#FFFFFF" transform="translate(0,0)"/>
<path d="" fill="#FFFFFF" transform="translate(0,0)"/>
<path d="" fill="#FFFFFF" transform="translate(0,0)"/>
<path d="" fill="#FFFFFF" transform="translate(0,0)"/>
<path d="" fill="#FFFFFF" transform="translate(0,0)"/>
<path d="" fill="#FFFFFF" transform="translate(0,0)"/>
<path d="" fill="#FFFFFF" transform="translate(0,0)"/>
<path d="" fill="#FFFFFF" transform="translate(0,0)"/>
<path d="" fill="#FFFFFF" transform="translate(0,0)"/>
<path d="" fill="#FFFFFF" transform="translate(0,0)"/>
<path d="" fill="#FFFFFF" transform="translate(0,0)"/>
<path d="" fill="#FFFFFF" transform="translate(0,0)"/>
<path d="" fill="#FFFFFF" transform="translate(0,0)"/>
<path d="" fill="#FFFFFF" transform="translate(0,0)"/>
<path d="" fill="#FFFFFF" transform="translate(0,0)"/>
<path d="" fill="#FFFFFF" transform="translate(0,0)"/>
<path d="" fill="#FFFFFF" transform="translate(0,0)"/>
<path d="" fill="#FFFFFF" transform="translate(0,0)"/>
<path d="" fill="#FFFFFF" transform="translate(0,0)"/>
<path d="" fill="#FFFFFF" transform="translate(0,0)"/>
<path d="" fill="#FFFFFF" transform="translate(0,0)"/>
<path d="" fill="#FFFFFF" transform="translate(0,0)"/>
<path d="" fill="#FFFFFF" transform="translate(0,0)"/>
<path d="" fill="#FFFFFF" transform="translate(0,0)"/>
<path d="" fill="#FFFFFF" transform="translate(0,0)"/>
<path d="" fill="#FFFFFF" transform="translate(0,0)"/>
<path d="" fill="#FFFFFF" transform="translate(0,0)"/>
<path d="" fill="#FFFFFF" transform="translate(0,0)"/>
<path d="" fill="#FFFFFF" transform="translate(0,0)"/>
<path d="" fill="#FFFFFF" transform="translate(0,0)"/>
<path d="" fill="#FFFFFF" transform="translate(0,0)"/>
<path d="" fill="#FFFFFF" transform="translate(0,0)"/>
<path d="" fill="#FFFFFF" transform="translate(0,0)"/>
<path d="" fill="#FFFFFF" transform="translate(0,0)"/>
<path d="" fill="#FFFFFF" transform="translate(0,0)"/>
<path d="" fill="#FFFFFF" transform="translate(0,0)"/>
<path d="" fill="#FFFFFF" transform="translate(0,0)"/>
<path d="" fill="#FFFFFF" transform="translate(0,0)"/>
<path d="" fill="#FFFFFF" transform="translate(0,0)"/>
<path d="" fill="#FFFFFF" transform="translate(0,0)"/>
<path d="" fill="#FFFFFF" transform="translate(0,0)"/>
<path d="" fill="#FFFFFF" transform="translate(0,0)"/>
<path d="" fill="#FFFFFF" transform="translate(0,0)"/>
<path d="" fill="#FFFFFF" transform="translate(0,0)"/>
<path d="" fill="#FFFFFF" transform="translate(0,0)"/>
<path d="" fill="#FFFFFF" transform="translate(0,0)"/>
<path d="" fill="#FFFFFF" transform="translate(0,0)"/>
<path d="" fill="#FFFFFF" transform="translate(0,0)"/>
<path d="" fill="#FFFFFF" transform="translate(0,0)"/>
<path d="" fill="#FFFFFF" transform="translate(0,0)"/>
<path d="" fill="#FFFFFF" transform="translate(0,0)"/>
<path d="" fill="#FFFFFF" transform="translate(0,0)"/>
<path d="" fill="#FFFFFF" transform="translate(0,0)"/>
<path d="" fill="#FFFFFF" transform="translate(0,0)"/>
<path d="" fill="#FFFFFF" transform="translate(0,0)"/>
<path d="" fill="#FFFFFF" transform="translate(0,0)"/>
<path d="" fill="#FFFFFF" transform="translate(0,0)"/>
<path d="" fill="#FFFFFF" transform="translate(0,0)"/>
<path d="" fill="#FFFFFF" transform="translate(0,0)"/>
<path d="" fill="#FFFFFF" transform="translate(0,0)"/>
<path d="" fill="#FFFFFF" transform="translate(0,0)"/>
<path d="" fill="#FFFFFF" transform="translate(0,0)"/>
<path d="" fill="#FFFFFF" transform="translate(0,0)"/>
<path d="" fill="#FFFFFF" transform="translate(0,0)"/>
<path d="" fill="#FFFFFF" transform="translate(0,0)"/>
<path d="" fill="#FFFFFF" transform="translate(0,0)"/>
<path d="" fill="#FFFFFF" transform="translate(0,0)"/>
<path d="" fill="#FFFFFF" transform="translate(0,0)"/>
<path d="" fill="#FFFFFF" transform="translate(0,0)"/>
<path d="" fill="#FFFFFF" transform="translate(0,0)"/>
<path d="" fill="#FFFFFF" transform="translate(0,0)"/>
<path d="" fill="#FFFFFF" transform="translate(0,0)"/>
<path d="" fill="#FFFFFF" transform="translate(0,0)"/>
<path d="" fill="#FFFFFF" transform="translate(0,0)"/>
<path d="" fill="#FFFFFF" transform="translate(0,0)"/>
<path d="" fill="#FFFFFF" transform="translate(0,0)"/>
<path d="" fill="#FFFFFF" transform="translate(0,0)"/>
<path d="" fill="#FFFFFF" transform="translate(0,0)"/>
<path d="" fill="#FFFFFF" transform="translate(0,0)"/>
<path d="" fill="#FFFFFF" transform="translate(0,0)"/>
<path d="" fill="#FFFFFF" transform="translate(0,0)"/>
<path d="" fill="#FFFFFF" transform="translate(0,0)"/>
<path d="" fill="#FFFFFF" transform="translate(0,0)"/>
<path d="" fill="#FFFFFF" transform="translate(0,0)"/>
<path d="" fill="#FFFFFF" transform="translate(0,0)"/>
<path d="" fill="#FFFFFF" transform="translate(0,0)"/>
<path d="" fill="#FFFFFF" transform="translate(0,0)"/>
<path d="" fill="#FFFFFF" transform="translate(0,0)"/>
<path d="" fill="#FFFFFF" transform="translate(0,0)"/>
<path d="" fill="#FFFFFF" transform="translate(0,0)"/>
<path d="" fill="#FFFFFF" transform="translate(0,0)"/>
<path d="" fill="#FFFFFF" transform="translate(0,0)"/>
<path d="" fill="#FFFFFF" transform="translate(0,0)"/>
<path d="" fill="#FFFFFF" transform="translate(0,0)"/>
<path d="" fill="#FFFFFF" transform="translate(0,0)"/>
<path d="" fill="#FFFFFF" transform="translate(0,0)"/>
<path d="" fill="#FFFFFF" transform="translate(0,0)"/>
<path d="" fill="#FFFFFF" transform="translate(0,0)"/>
<path d="" fill="#FFFFFF" transform="translate(0,0)"/>
<path d="" fill="#FFFFFF" transform="translate(0,0)"/>
<path d="" fill="#FFFFFF" transform="translate(0,0)"/>
<path d="" fill="#FFFFFF" transform="translate(0,0)"/>
</svg>
