<?xml version="1.0" encoding="UTF-8"?>
<svg version="1.1" xmlns="http://www.w3.org/2000/svg" width="60" height="60">
<path d="M0 0 C1.98 0 3.96 0 6 0 C6 1.32 6 2.64 6 4 C8.97 4 11.94 4 15 4 C15 2.68 15 1.36 15 0 C16.98 0 18.96 0 21 0 C21 1.32 21 2.64 21 4 C23.97 4 26.94 4 30 4 C30 2.68 30 1.36 30 0 C31.98 0 33.96 0 36 0 C36 1.32 36 2.64 36 4 C37.051875 4.061875 38.10375 4.12375 39.1875 4.1875 C43.87611515 5.18671307 45.14235204 6.17364755 48 10 C48.73258979 13.38711322 48.70115247 16.70116241 48.6640625 20.15625 C48.66884613 21.13613892 48.67362976 22.11602783 48.67855835 23.12561035 C48.68195441 25.19329436 48.67277263 27.26103228 48.65185547 29.32861328 C48.62508615 32.48982702 48.65161371 35.64749018 48.68359375 38.80859375 C48.6802896 40.82032032 48.67388326 42.83204469 48.6640625 44.84375 C48.67418365 45.78657837 48.68430481 46.72940674 48.69473267 47.70080566 C48.6194236 51.92677516 48.34969616 54.41118225 46.16162109 58.09545898 C41.43006484 60.94571924 37.17794954 60.69730112 31.75 60.62890625 C30.65913086 60.63131821 29.56826172 60.63373016 28.44433594 60.63621521 C26.14123901 60.63523705 23.83811848 60.62185114 21.53515625 60.59692383 C18.0122074 60.56261887 14.49176748 60.57626748 10.96875 60.59570312 C8.729156 60.58880452 6.48956847 60.57913201 4.25 60.56640625 C3.19780273 60.57136612 2.14560547 60.57632599 1.06152344 60.58143616 C-3.14389159 60.51379075 -6.28778415 60.31381495 -10.16162109 58.60693359 C-13.04472837 54.51851134 -12.71508386 50.61179727 -12.6640625 45.72265625 C-12.66884613 44.71915634 -12.67362976 43.71565643 -12.67855835 42.68174744 C-12.68195844 40.56100903 -12.67274846 38.44021829 -12.65185547 36.31958008 C-12.62512034 33.07709473 -12.65158608 29.83807996 -12.68359375 26.59570312 C-12.68028912 24.53384654 -12.6738818 22.47199211 -12.6640625 20.41015625 C-12.67418365 19.44231705 -12.68430481 18.47447784 -12.69473267 17.47731018 C-12.61489587 12.8795014 -12.50458291 10.67910634 -9.69677734 6.90014648 C-6.43311379 4.60057257 -3.94717312 4.23218665 0 4 C0 2.68 0 1.36 0 0 Z M-4 11 C-4.66 11.66 -5.32 12.32 -6 13 C-6 14.98 -6 16.96 -6 19 C9.84 19 25.68 19 42 19 C42 17.02 42 15.04 42 13 C41.34 12.34 40.68 11.68 40 11 C38.68 11 37.36 11 36 11 C36 12.32 36 13.64 36 15 C34.02 15 32.04 15 30 15 C30 13.68 30 12.36 30 11 C27.03 11 24.06 11 21 11 C21 12.32 21 13.64 21 15 C19.02 15 17.04 15 15 15 C15 13.68 15 12.36 15 11 C12.03 11 9.06 11 6 11 C6 12.32 6 13.64 6 15 C4.02 15 2.04 15 0 15 C0 13.68 0 12.36 0 11 C-1.32 11 -2.64 11 -4 11 Z M-6 26 C-6.04125 30.24875 -6.0825 34.4975 -6.125 38.875 C-6.14320801 40.2141748 -6.16141602 41.55334961 -6.18017578 42.93310547 C-6.1851709 43.98385254 -6.19016602 45.03459961 -6.1953125 46.1171875 C-6.20578613 47.19597168 -6.21625977 48.27475586 -6.22705078 49.38623047 C-6.26839977 52.16044022 -6.26839977 52.16044022 -4 54 C-2.03555808 54.30497934 -2.03555808 54.30497934 0.234375 54.25878906 C1.10868164 54.26509338 1.98298828 54.27139771 2.88378906 54.27789307 C3.82963867 54.2738446 4.77548828 54.26979614 5.75 54.265625 C7.2035791 54.26849518 7.2035791 54.26849518 8.68652344 54.27142334 C10.73763285 54.27278579 12.78875086 54.26908518 14.83984375 54.26074219 C17.98717539 54.25004359 21.1339362 54.26063554 24.28125 54.2734375 C26.2708346 54.27211592 28.26041884 54.26955355 30.25 54.265625 C31.66877441 54.27169769 31.66877441 54.27169769 33.11621094 54.27789307 C34.4276709 54.26843658 34.4276709 54.26843658 35.765625 54.25878906 C36.92239746 54.25640228 36.92239746 54.25640228 38.10253906 54.25396729 C40.24162583 54.1630742 40.24162583 54.1630742 42 52 C42.27844932 49.28065665 42.27844932 49.28065665 42.1953125 46.1171875 C42.19031738 45.06644043 42.18532227 44.01569336 42.18017578 42.93310547 C42.16196777 41.59393066 42.14375977 40.25475586 42.125 38.875 C42.08375 34.62625 42.0425 30.3775 42 26 C26.16 26 10.32 26 -6 26 Z " fill="#824A00" transform="translate(12,0)"/>
<path d="M0 0 C1.37478516 0.01740234 1.37478516 0.01740234 2.77734375 0.03515625 C3.69644531 0.04417969 4.61554687 0.05320313 5.5625 0.0625 C6.27277344 0.07410156 6.98304687 0.08570313 7.71484375 0.09765625 C8.09703142 1.75380282 8.42879477 3.42222649 8.71484375 5.09765625 C7.71484375 6.09765625 7.71484375 6.09765625 5.4296875 6.1953125 C4.05490234 6.17791016 4.05490234 6.17791016 2.65234375 6.16015625 C1.73324219 6.15113281 0.81414063 6.14210938 -0.1328125 6.1328125 C-0.84308594 6.12121094 -1.55335937 6.10960937 -2.28515625 6.09765625 C-2.66734392 4.44150968 -2.99910727 2.77308601 -3.28515625 1.09765625 C-2.28515625 0.09765625 -2.28515625 0.09765625 0 0 Z " fill="#8A4500" transform="translate(42.28515625,41.90234375)"/>
<path d="M0 0 C1.37478516 0.01740234 1.37478516 0.01740234 2.77734375 0.03515625 C3.69644531 0.04417969 4.61554687 0.05320313 5.5625 0.0625 C6.27277344 0.07410156 6.98304687 0.08570313 7.71484375 0.09765625 C8.09703142 1.75380282 8.42879477 3.42222649 8.71484375 5.09765625 C7.71484375 6.09765625 7.71484375 6.09765625 5.4296875 6.1953125 C4.05490234 6.17791016 4.05490234 6.17791016 2.65234375 6.16015625 C1.73324219 6.15113281 0.81414063 6.14210938 -0.1328125 6.1328125 C-0.84308594 6.12121094 -1.55335937 6.10960937 -2.28515625 6.09765625 C-2.66734392 4.44150968 -2.99910727 2.77308601 -3.28515625 1.09765625 C-2.28515625 0.09765625 -2.28515625 0.09765625 0 0 Z " fill="#8A4500" transform="translate(27.28515625,41.90234375)"/>
<path d="M0 0 C1.37478516 0.01740234 1.37478516 0.01740234 2.77734375 0.03515625 C3.69644531 0.04417969 4.61554687 0.05320313 5.5625 0.0625 C6.27277344 0.07410156 6.98304687 0.08570313 7.71484375 0.09765625 C8.09703142 1.75380282 8.42879477 3.42222649 8.71484375 5.09765625 C7.71484375 6.09765625 7.71484375 6.09765625 5.4296875 6.1953125 C4.05490234 6.17791016 4.05490234 6.17791016 2.65234375 6.16015625 C1.73324219 6.15113281 0.81414063 6.14210938 -0.1328125 6.1328125 C-0.84308594 6.12121094 -1.55335937 6.10960937 -2.28515625 6.09765625 C-2.66734392 4.44150968 -2.99910727 2.77308601 -3.28515625 1.09765625 C-2.28515625 0.09765625 -2.28515625 0.09765625 0 0 Z " fill="#8A4500" transform="translate(12.28515625,41.90234375)"/>
<path d="M0 0 C3.3 0 6.6 0 10 0 C11 4 11 4 10 6 C6.7 6 3.4 6 0 6 C-1 2 -1 2 0 0 Z " fill="#834C00" transform="translate(40,32)"/>
<path d="M0 0 C3.3 0 6.6 0 10 0 C11 4 11 4 10 6 C6.7 6 3.4 6 0 6 C-1 2 -1 2 0 0 Z " fill="#834C00" transform="translate(25,32)"/>
<path d="M0 0 C3.3 0 6.6 0 10 0 C11 4 11 4 10 6 C6.7 6 3.4 6 0 6 C-1 2 -1 2 0 0 Z " fill="#834C00" transform="translate(10,32)"/>
</svg>
