<?xml version="1.0" encoding="UTF-8"?>
<svg version="1.1" xmlns="http://www.w3.org/2000/svg" width="60" height="60">
<path d="M0 0 C1.59618164 -0.08121094 1.59618164 -0.08121094 3.22460938 -0.1640625 C8.89482809 -0.26212681 12.49240852 0.01059168 16.89453125 3.78125 C18.70239258 5.59570312 18.70239258 5.59570312 20.3125 7.5 C20.87195312 8.12938477 21.43140625 8.75876953 22.0078125 9.40722656 C23.63956264 12.02462218 23.65895343 13.63666986 23.60546875 16.703125 C23.5909668 18.17265625 23.5909668 18.17265625 23.57617188 19.671875 C23.55103516 20.68765625 23.52589844 21.7034375 23.5 22.75 C23.47969727 24.296875 23.47969727 24.296875 23.45898438 25.875 C23.42367607 28.41719792 23.37436036 30.95833223 23.3125 33.5 C21.6625 33.17 20.0125 32.84 18.3125 32.5 C18.3125 27.22 18.3125 21.94 18.3125 16.5 C15.6725 16.5 13.0325 16.5 10.3125 16.5 C8.3125 15.5 8.3125 15.5 7.3125 13.5 C7.17834528 10.8276379 7.26931459 8.17749512 7.3125 5.5 C4.35382082 5.64046255 1.39567736 5.78712224 -1.5625 5.9375 C-2.40425781 5.97681641 -3.24601562 6.01613281 -4.11328125 6.05664062 C-4.91894531 6.09853516 -5.72460938 6.14042969 -6.5546875 6.18359375 C-7.29831543 6.22025146 -8.04194336 6.25690918 -8.80810547 6.29467773 C-10.77614312 6.39955865 -10.77614312 6.39955865 -12.6875 7.5 C-12.6875 21.03 -12.6875 34.56 -12.6875 48.5 C-7.7375 48.83 -2.7875 49.16 2.3125 49.5 C2.3125 51.15 2.3125 52.8 2.3125 54.5 C-0.08456123 54.60854617 -2.47665838 54.68753157 -4.875 54.75 C-5.54853516 54.78351562 -6.22207031 54.81703125 -6.91601562 54.8515625 C-10.57791975 54.92301429 -12.50900622 54.61534178 -15.61328125 52.609375 C-18.38135373 49.79438604 -18.81267337 48.32230619 -18.86450195 44.49682617 C-18.88375481 43.25995308 -18.88375481 43.25995308 -18.90339661 41.99809265 C-18.91078354 41.10540176 -18.91817047 40.21271088 -18.92578125 39.29296875 C-18.933853 38.37542313 -18.94192474 37.4578775 -18.95024109 36.51252747 C-18.96408493 34.56818534 -18.97480574 32.62381888 -18.98266602 30.67944336 C-18.99987165 27.70965348 -19.04375382 24.74097887 -19.08789062 21.77148438 C-19.09801818 19.88282069 -19.10653409 17.99414754 -19.11328125 16.10546875 C-19.13078934 15.21885056 -19.14829742 14.33223236 -19.16633606 13.41874695 C-19.15185233 9.2896389 -19.02898583 7.06406587 -16.84838867 3.4621582 C-12.19430425 -0.76390399 -5.95178096 0.12746229 0 0 Z M12.3125 8.5 C12.3125 9.49 12.3125 10.48 12.3125 11.5 C14.7875 11.995 14.7875 11.995 17.3125 12.5 C15.6625 11.18 14.0125 9.86 12.3125 8.5 Z " fill="#824A00" transform="translate(27.6875,2.5)"/>
<path d="M0 0 C4.32644776 2.32346269 4.32644776 2.32346269 6 5 C6.49014186 7.81831568 6.62625024 10.53705701 6.72265625 13.39453125 C7.09211458 16.86535805 8.48557067 18.64779192 11 21 C10.34 21.99 9.68 22.98 9 24 C6.55304325 23.5781109 5.30612878 23.3472375 3.6328125 21.44921875 C2.1072243 19.79350065 2.1072243 19.79350065 -0.05078125 19.8828125 C-1.17033203 20.00269531 -1.17033203 20.00269531 -2.3125 20.125 C-5.67925137 20.21852087 -7.77570736 20.01989007 -10.5625 18.0625 C-13.4262871 14.46440851 -13.76724697 12.6337045 -13.46875 8.15625 C-12.77989736 4.98752784 -11.33200445 3.19482772 -9 1 C-5.85088521 -0.57455739 -3.47991184 -0.34799118 0 0 Z M-6.6875 6.1875 C-8.44914337 8.62024561 -8.45192646 10.06247802 -8 13 C-5.21885944 15.33391203 -5.21885944 15.33391203 -2.3125 14.625 C-1.549375 14.41875 -0.78625 14.2125 0 14 C0.76716851 11.14921909 0.76716851 11.14921909 1 8 C-0.12640605 6.03959519 -0.12640605 6.03959519 -2 5 C-4.93500458 4.7122533 -4.93500458 4.7122533 -6.6875 6.1875 Z " fill="#844A00" transform="translate(41,33)"/>
<path d="M0 0 C0.91644287 0.00523682 1.83288574 0.01047363 2.77709961 0.01586914 C3.76645508 0.0190918 4.75581055 0.02231445 5.77514648 0.02563477 C6.81606445 0.03401367 7.85698242 0.04239258 8.92944336 0.05102539 C10.49662109 0.05779297 10.49662109 0.05779297 12.09545898 0.06469727 C14.68600996 0.07652627 17.27644895 0.0930085 19.86694336 0.11352539 C20.42944336 2.05102539 20.42944336 2.05102539 20.86694336 4.11352539 C19.86694336 5.11352539 19.86694336 5.11352539 17.73388672 5.22705078 C16.81744385 5.22181396 15.90100098 5.21657715 14.95678711 5.21118164 C13.96743164 5.20795898 12.97807617 5.20473633 11.95874023 5.20141602 C10.91782227 5.19303711 9.8769043 5.1846582 8.80444336 5.17602539 C7.7596582 5.17151367 6.71487305 5.16700195 5.63842773 5.16235352 C3.04787676 5.15052452 0.45743777 5.13404228 -2.13305664 5.11352539 C-2.69555664 3.17602539 -2.69555664 3.17602539 -3.13305664 1.11352539 C-2.13305664 0.11352539 -2.13305664 0.11352539 0 0 Z " fill="#824A00" transform="translate(19.133056640625,21.886474609375)"/>
<path d="M0 0 C5.28 0 10.56 0 16 0 C16 1.32 16 2.64 16 4 C10.72 4 5.44 4 0 4 C0 2.68 0 1.36 0 0 Z " fill="#834B00" transform="translate(16,15)"/>
<path d="M0 0 C3.63 0 7.26 0 11 0 C11 1.32 11 2.64 11 4 C7.37 4 3.74 4 0 4 C0 2.68 0 1.36 0 0 Z " fill="#834C00" transform="translate(16,30)"/>
</svg>
