<?xml version="1.0" encoding="UTF-8"?>
<svg version="1.1" xmlns="http://www.w3.org/2000/svg" width="111" height="111">
<path d="M0 0 C6.0546875 -0.1953125 6.0546875 -0.1953125 8 0 C10 2 10 2 10 6 C14.29 6 18.58 6 23 6 C23.33 4.35 23.66 2.7 24 1 C25 0 25 0 28.4375 -0.25 C29.613125 -0.1675 30.78875 -0.085 32 0 C34 3 34 3 34 6 C38.29 6 42.58 6 47 6 C47.33 4.02 47.66 2.04 48 0 C55.75 -0.125 55.75 -0.125 58 1 C58 2.65 58 4.3 58 6 C58.55461914 5.98952637 59.10923828 5.97905273 59.68066406 5.96826172 C62.20372959 5.92657996 64.72672253 5.90063562 67.25 5.875 C68.55904297 5.84986328 68.55904297 5.84986328 69.89453125 5.82421875 C70.73886719 5.81777344 71.58320312 5.81132812 72.453125 5.8046875 C73.22817383 5.79421387 74.00322266 5.78374023 74.80175781 5.77294922 C77.39907782 6.04121972 78.83865995 6.52343547 81 8 C84.12655215 12.116859 84.43572104 15.72045421 84.40405273 20.72436523 C84.41091599 21.48598969 84.41777924 22.24761414 84.42485046 23.03231812 C84.44309978 25.54126817 84.43928373 28.04959178 84.43359375 30.55859375 C84.43815654 32.30827538 84.4434624 34.05795521 84.44947815 35.80763245 C84.45840563 39.47184538 84.45599039 43.13584031 84.44604492 46.80004883 C84.43455699 51.48875322 84.45476558 56.17670428 84.48396206 60.86530972 C84.50233506 64.4779384 84.5020294 68.09038692 84.49632454 71.70305061 C84.49617145 73.43136718 84.50220544 75.15969605 84.51461601 76.88796806 C84.52954507 79.30786855 84.51883612 81.72638224 84.50170898 84.14624023 C84.51137695 84.8555217 84.52104492 85.56480316 84.53100586 86.295578 C84.45725902 91.28800882 83.19392128 94.19059819 80 98 C77.30308855 98.89897048 75.72216422 99.13226676 72.9524231 99.15390015 C72.13093781 99.16250061 71.30945251 99.17110107 70.46307373 99.17996216 C69.56534241 99.18422211 68.66761108 99.18848206 67.74267578 99.19287109 C66.32029099 99.20513733 66.32029099 99.20513733 64.86917114 99.21765137 C61.72789136 99.242486 58.58665663 99.25901449 55.4453125 99.2734375 C53.8370138 99.28142302 53.8370138 99.28142302 52.19622421 99.28956985 C46.5235643 99.31629015 40.85092633 99.33567062 35.17822266 99.35009766 C29.31457783 99.36676324 23.45149311 99.4115606 17.58806038 99.4624691 C13.08250263 99.4960895 8.57707888 99.50766925 4.07140732 99.51332474 C1.90961286 99.52004915 -0.25217242 99.53530192 -2.41384506 99.55921555 C-5.43766045 99.59076416 -8.4599506 99.59091939 -11.48388672 99.58349609 C-12.37756958 99.59990143 -13.27125244 99.61630676 -14.1920166 99.63320923 C-18.65779225 99.58829646 -20.42427876 99.45785486 -24.03225708 96.58853149 C-27.15137171 92.48539059 -27.15340954 89.60011988 -27.16113281 84.6003418 C-27.16609772 83.83754913 -27.17106262 83.07475647 -27.17617798 82.28884888 C-27.19081288 79.75896307 -27.19760423 77.22913998 -27.203125 74.69921875 C-27.20887591 72.94285581 -27.21463366 71.1864929 -27.22039795 69.43013 C-27.2309121 65.74386299 -27.23675187 62.0576178 -27.24023438 58.37133789 C-27.24571616 53.65009728 -27.26973562 48.9291455 -27.29820633 44.20799541 C-27.31684095 40.57828431 -27.32203877 36.94864261 -27.32357025 33.31888771 C-27.32659609 31.57857499 -27.3346223 29.83826346 -27.34775543 28.09799767 C-27.36483131 25.66105652 -27.36293199 23.22481868 -27.35644531 20.7878418 C-27.3656601 20.07025192 -27.37487488 19.35266205 -27.3843689 18.61332703 C-27.34790185 14.23464336 -26.66421775 11.49492715 -24 8 C-21.138776 6.04529515 -18.8750167 5.75844572 -15.453125 5.8046875 C-14.18662109 5.81435547 -14.18662109 5.81435547 -12.89453125 5.82421875 C-12.02183594 5.84097656 -11.14914062 5.85773437 -10.25 5.875 C-8.91775391 5.88853516 -8.91775391 5.88853516 -7.55859375 5.90234375 C-5.37211942 5.92585423 -3.18619906 5.95871501 -1 6 C-0.67 4.02 -0.34 2.04 0 0 Z M2 14 C1.01 15.485 1.01 15.485 0 17 C-0.33 16.67 -0.66 16.34 -1 16 C-3.33160055 15.90090698 -5.66629942 15.87029496 -8 15.875 C-9.27875 15.87242188 -10.5575 15.86984375 -11.875 15.8671875 C-14.86687244 15.64139107 -14.86687244 15.64139107 -16 17 C-16.09960152 19.20324974 -16.12799757 21.4097349 -16.12939453 23.61523438 C-16.13114685 24.30627762 -16.13289917 24.99732086 -16.13470459 25.70930481 C-16.13912254 28.00414507 -16.13618533 30.29890889 -16.1328125 32.59375 C-16.13348556 34.18176285 -16.13445559 35.76977559 -16.13571167 37.35778809 C-16.13718857 40.6901955 -16.13503436 44.02257616 -16.13037109 47.35498047 C-16.1246738 51.6359851 -16.12795285 55.91692705 -16.13394356 60.19792938 C-16.1375494 63.47833736 -16.13641048 66.75873037 -16.13381577 70.03913879 C-16.13314656 71.6180675 -16.1339747 73.19699754 -16.13629532 74.77592468 C-16.13882223 76.97890853 -16.13498075 79.18178949 -16.12939453 81.38476562 C-16.12859894 82.64083618 -16.12780334 83.89690674 -16.12698364 85.19104004 C-16.32073276 87.90408459 -16.32073276 87.90408459 -15 89 C-12.29699701 89.10046803 -9.61951654 89.13616452 -6.91601562 89.12939453 C-6.06891525 89.13114685 -5.22181488 89.13289917 -4.3490448 89.13470459 C-1.53475934 89.13912409 1.27946384 89.13618477 4.09375 89.1328125 C6.04048678 89.13348551 7.98722347 89.13445551 9.93395996 89.13571167 C14.01962075 89.13718878 18.10525971 89.13503368 22.19091797 89.13037109 C27.44046516 89.1246738 32.68996122 89.12795274 37.93950653 89.13394356 C41.96108387 89.13754883 45.98264899 89.13641074 50.00422668 89.13381577 C51.94041449 89.1331464 53.87660339 89.13397525 55.81278992 89.13629532 C58.51389524 89.13882129 61.21491659 89.13498205 63.91601562 89.12939453 C65.12853752 89.13243088 65.12853752 89.13243088 66.36555481 89.13552856 C69.98060109 89.46186383 69.98060109 89.46186383 73 88 C73.09960152 85.79675026 73.12799757 83.5902651 73.12939453 81.38476562 C73.13114685 80.69372238 73.13289917 80.00267914 73.13470459 79.29069519 C73.13912254 76.99585493 73.13618533 74.70109111 73.1328125 72.40625 C73.13348556 70.81823715 73.13445559 69.23022441 73.13571167 67.64221191 C73.13718857 64.3098045 73.13503436 60.97742384 73.13037109 57.64501953 C73.1246738 53.3640149 73.12795285 49.08307295 73.13394356 44.80207062 C73.1375494 41.52166264 73.13641048 38.24126963 73.13381577 34.96086121 C73.13314656 33.3819325 73.1339747 31.80300246 73.13629532 30.22407532 C73.13882223 28.02109147 73.13498075 25.81821051 73.12939453 23.61523438 C73.12859894 22.35916382 73.12780334 21.10309326 73.12698364 19.80895996 C73.32073276 17.09591541 73.32073276 17.09591541 72 16 C69.66839945 15.90090698 67.33370058 15.87029496 65 15.875 C63.72125 15.87242188 62.4425 15.86984375 61.125 15.8671875 C58.13312756 15.64139107 58.13312756 15.64139107 57 17 C56.01 15.515 56.01 15.515 55 14 C52.41619823 13.74969023 52.41619823 13.74969023 50 14 C49.67 15.32 49.34 16.64 49 18 C48.34 18 47.68 18 47 18 C47 17.34 47 16.68 47 16 C42.71 16 38.42 16 34 16 C33.34 17.65 32.68 19.3 32 21 C29.07083439 22.32284898 28.12177395 22.04059132 25 21 C24.34 19.35 23.68 17.7 23 16 C18.71 16 14.42 16 10 16 C10 16.66 10 17.32 10 18 C9.34 18 8.68 18 8 18 C7.34 16.68 6.68 15.36 6 14 C4.68 14 3.36 14 2 14 Z " fill="#000000" transform="translate(27,6)"/>
<path d="M0 0 C0.31768836 3.1330645 0.29360831 4.57970791 -1.5390625 7.203125 C-4.64195114 10.24790711 -7.13375413 12.64331052 -11.1875 14.3125 C-14 14 -14 14 -16.9375 11.875 C-19 9 -19 9 -18.8125 6.1875 C-18.544375 5.465625 -18.27625 4.74375 -18 4 C-16.9275 4.268125 -15.855 4.53625 -14.75 4.8125 C-13.5125 4.874375 -12.275 4.93625 -11 5 C-8.6908334 2.69697131 -8.6908334 2.69697131 -7 0 C-3.86650268 -1.04449911 -3.01031744 -0.93423645 0 0 Z " fill="#000000" transform="translate(55,52)"/>
<path d="M0 0 C0.928125 0.20625 1.85625 0.4125 2.8125 0.625 C4.13811852 7.01207103 4.13811852 7.01207103 2.75 9.625 C-0.12817863 11.11051155 -2.1327585 10.42188909 -5.1875 9.625 C-6.1875 8.625 -6.1875 8.625 -6.4375 5.1875 C-6.355 4.011875 -6.2725 2.83625 -6.1875 1.625 C-3.1875 -0.375 -3.1875 -0.375 0 0 Z " fill="#000000" transform="translate(86.1875,53.375)"/>
<path d="M0 0 C0.928125 0.20625 1.85625 0.4125 2.8125 0.625 C4.13811852 7.01207103 4.13811852 7.01207103 2.75 9.625 C-0.12817863 11.11051155 -2.1327585 10.42188909 -5.1875 9.625 C-6.1875 8.625 -6.1875 8.625 -6.4375 5.1875 C-6.355 4.011875 -6.2725 2.83625 -6.1875 1.625 C-3.1875 -0.375 -3.1875 -0.375 0 0 Z " fill="#000000" transform="translate(27.1875,53.375)"/>
<path d="M0 0 C1.175625 0.0825 2.35125 0.165 3.5625 0.25 C5.5625 3.25 5.5625 3.25 5.1875 6.4375 C4.98125 7.365625 4.775 8.29375 4.5625 9.25 C-1.82457103 10.57561852 -1.82457103 10.57561852 -4.4375 9.1875 C-5.92301155 6.30932137 -5.23438909 4.3047415 -4.4375 1.25 C-3.4375 0.25 -3.4375 0.25 0 0 Z " fill="#000000" transform="translate(45.4375,33.75)"/>
<path d="M0 0 C3.625 0.375 3.625 0.375 7 1 C7.625 3.8125 7.625 3.8125 8 7 C7.01 8.485 7.01 8.485 6 10 C2.5 10.375 2.5 10.375 -1 10 C-3 7 -3 7 -2.75 4.4375 C-2 2 -2 2 0 0 Z " fill="#000000" transform="translate(43,73)"/>
<path d="M0 0 C1 1 1 1 1.25 4.4375 C1.1675 5.613125 1.085 6.78875 1 8 C-2 10 -2 10 -5.1875 9.625 C-6.5796875 9.315625 -6.5796875 9.315625 -8 9 C-9.32561852 2.61292897 -9.32561852 2.61292897 -7.9375 0 C-5.05932137 -1.48551155 -3.0547415 -0.79688909 0 0 Z " fill="#000000" transform="translate(69,54)"/>
<path d="M0 0 C3 0.25 3 0.25 5 2.25 C5.1875 5.8125 5.1875 5.8125 5 9.25 C4 10.25 4 10.25 0.5625 10.4375 C-3 10.25 -3 10.25 -5 8.25 C-5.25 5.25 -5.25 5.25 -5 2.25 C-3 0.25 -3 0.25 0 0 Z " fill="#000000" transform="translate(65,72.75)"/>
<path d="M0 0 C3 0.25 3 0.25 5 2.25 C5.25 5.25 5.25 5.25 5 8.25 C3 10.25 3 10.25 0 10.4375 C-3 10.25 -3 10.25 -5 9.25 C-5.125 5.875 -5.125 5.875 -5 2.25 C-3 0.25 -3 0.25 0 0 Z " fill="#000000" transform="translate(85,72.75)"/>
<path d="M0 0 C2 2 2 2 2.25 5 C2 8 2 8 0 10 C-3 10.25 -3 10.25 -6 10 C-8 8 -8 8 -8.125 4.375 C-8.08375 3.26125 -8.0425 2.1475 -8 1 C-5.23749964 -0.38125018 -3.05268901 -0.19079306 0 0 Z " fill="#000000" transform="translate(88,34)"/>
<path d="M0 0 C3 0.1875 3 0.1875 5 1.1875 C5.125 4.5625 5.125 4.5625 5 8.1875 C3 10.1875 3 10.1875 0 10.4375 C-3 10.1875 -3 10.1875 -5 8.1875 C-5.25 5.1875 -5.25 5.1875 -5 2.1875 C-3 0.1875 -3 0.1875 0 0 Z " fill="#000000" transform="translate(65,33.8125)"/>
<path d="M0 0 C3 0.25 3 0.25 5 2.25 C5.25 5.25 5.25 5.25 5 8.25 C3 10.25 3 10.25 0 10.5 C-3 10.25 -3 10.25 -5 8.25 C-5.25 5.25 -5.25 5.25 -5 2.25 C-3 0.25 -3 0.25 0 0 Z " fill="#000000" transform="translate(26,72.75)"/>
<path d="M0 0 C3 0.25 3 0.25 5 2.25 C5.25 5.25 5.25 5.25 5 8.25 C3 10.25 3 10.25 0 10.5 C-3 10.25 -3 10.25 -5 8.25 C-5.25 5.25 -5.25 5.25 -5 2.25 C-3 0.25 -3 0.25 0 0 Z " fill="#000000" transform="translate(26,33.75)"/>
</svg>
