<?xml version="1.0" encoding="UTF-8"?>
<svg version="1.1" xmlns="http://www.w3.org/2000/svg" width="60" height="60">
<path d="M0 0 C15.18 0 30.36 0 46 0 C46 19.8 46 39.6 46 60 C39.56125897 59.3561259 35.27024736 58.90301393 29.4375 57.1875 C21.85555574 55.44165757 16.00323264 56.91280563 8.71484375 59.01953125 C5 60 5 60 0 60 C0 40.2 0 20.4 0 0 Z M6 6 C6 21.51 6 37.02 6 53 C10.29 52.01 14.58 51.02 19 50 C26.8245136 49.26645185 31.69176028 51.08271391 40 53 C40 37.49 40 21.98 40 6 C28.78 6 17.56 6 6 6 Z " fill="#824B00" transform="translate(7,0)"/>
<path d="M0 0 C8.58 0 17.16 0 26 0 C26 2.31 26 4.62 26 7 C17.42 7 8.84 7 0 7 C0 4.69 0 2.38 0 0 Z " fill="#7E4C00" transform="translate(17,16)"/>
<path d="M0 0 C8.58 0 17.16 0 26 0 C26 1.98 26 3.96 26 6 C17.42 6 8.84 6 0 6 C0 4.02 0 2.04 0 0 Z " fill="#824A00" transform="translate(17,24)"/>
<path d="M0 0 C8.58 0 17.16 0 26 0 C26 1.98 26 3.96 26 6 C17.42 6 8.84 6 0 6 C0 4.02 0 2.04 0 0 Z " fill="#834900" transform="translate(17,9)"/>
<path d="M0 0 C2.97922593 -0.02683987 5.95821295 -0.04676037 8.9375 -0.0625 C9.78763672 -0.07087891 10.63777344 -0.07925781 11.51367188 -0.08789062 C12.32255859 -0.09111328 13.13144531 -0.09433594 13.96484375 -0.09765625 C14.7137085 -0.10289307 15.46257324 -0.10812988 16.23413086 -0.11352539 C18 0 18 0 19 1 C19 2.98 19 4.96 19 7 C12.73 7 6.46 7 0 7 C0 4.69 0 2.38 0 0 Z " fill="#824800" transform="translate(17,31)"/>
</svg>
