<?xml version="1.0" encoding="UTF-8"?>
<svg version="1.1" xmlns="http://www.w3.org/2000/svg" width="60" height="60">
<path d="M0 0 C3.24463011 2.05819939 6.25576226 4.30554435 9 7 C9 7.66 9 8.32 9 9 C10.32 9.33 11.64 9.66 13 10 C13 10.66 13 11.32 13 12 C13.928125 12.433125 13.928125 12.433125 14.875 12.875 C17 14 17 14 19 16 C19.42205778 20.23831136 19.37159338 24.49161762 19.37060547 28.74853516 C19.37497009 30.860526 19.41125594 32.97041164 19.44921875 35.08203125 C19.45508881 36.4270762 19.45905694 37.77213106 19.4609375 39.1171875 C19.46915527 40.34034668 19.47737305 41.56350586 19.48583984 42.82373047 C18.90926764 46.59317993 18.00364668 47.72875122 15 50 C11.10835652 51.29721449 8.10570774 51.13033993 4 51 C3.01 50.505 3.01 50.505 2 50 C1.6433535 47.18745864 1.55586944 44.39844707 1.44140625 41.56640625 C1.29574219 40.71949219 1.15007813 39.87257812 1 39 C-2.20380017 36.86413322 -3.01939967 36.76867825 -6.6875 36.875 C-7.49574219 36.89304688 -8.30398437 36.91109375 -9.13671875 36.9296875 C-9.75160156 36.95289063 -10.36648437 36.97609375 -11 37 C-11.04898437 37.84304687 -11.09796875 38.68609375 -11.1484375 39.5546875 C-11.22320313 40.65039062 -11.29796875 41.74609375 -11.375 42.875 C-11.44460937 43.96554688 -11.51421875 45.05609375 -11.5859375 46.1796875 C-12 49 -12 49 -14 51 C-19.39091939 51.44187864 -22.5696115 51.38794415 -27 48 C-30.66941482 44.33058518 -29.61356133 38.49762592 -29.70019531 33.52612305 C-29.73311606 32.14554943 -29.78744653 30.76530285 -29.86425781 29.38647461 C-30.49398459 18.00895458 -30.49398459 18.00895458 -26.89428711 13.16845703 C-24.36675777 10.88024954 -21.80753724 8.92951737 -19 7 C-17.34619767 5.67656394 -15.69902593 4.34474087 -14.0625 3 C-9.4975413 -0.57906018 -5.66170808 -1.97350967 0 0 Z " fill="#834B00" transform="translate(35,5)"/>
</svg>
