<?xml version="1.0" encoding="UTF-8"?>
<svg version="1.1" xmlns="http://www.w3.org/2000/svg" width="50" height="50">
<path d="M0 0 C4.64237258 2.59455941 7.58017052 5.18138304 10 10 C10.5546875 12.76171875 10.5546875 12.76171875 10.875 15.6875 C11.64203084 21.10340471 13.26927228 25.07645047 16.07421875 29.74609375 C17 32 17 32 16 37 C2.8 37 -10.4 37 -24 37 C-25.10693153 31.46534235 -25.10693153 31.46534235 -22.6875 27.4375 C-20.54326641 23.50150957 -19.56252179 20.25697913 -19 15.8125 C-18.11791166 9.50840077 -16.30501035 5.65636346 -11.328125 1.65625 C-7.25630216 -1.01025345 -4.5591887 -1.61471266 0 0 Z " fill="#8A8A8A" transform="translate(29,2)"/>
<path d="M0 0 C5.28 0 10.56 0 16 0 C15 4 15 4 13.3125 5.75 C10.24885205 7.40602592 8.44265183 7.4918074 5 7 C2.125 5.1875 2.125 5.1875 0 3 C0 2.01 0 1.02 0 0 Z " fill="#8D8D8D" transform="translate(17,42)"/>
</svg>
