<?xml version="1.0" encoding="UTF-8"?>
<svg version="1.1" xmlns="http://www.w3.org/2000/svg" width="60" height="60">
<path d="M0 0 C5.05803824 3.02626812 8.53759852 7.15476489 10.9375 12.5 C11.59441189 15.58748589 11.78205669 18.29052077 11.5625 21.4375 C10.01748549 22.98251451 8.5758978 22.56469131 6.42578125 22.56689453 C5.10936646 22.57162277 5.10936646 22.57162277 3.76635742 22.57644653 C2.81220947 22.5744223 1.85806152 22.57239807 0.875 22.5703125 C-0.58425903 22.57174759 -0.58425903 22.57174759 -2.07299805 22.57321167 C-4.134278 22.57389358 -6.19556008 22.57203853 -8.25683594 22.56787109 C-11.42387688 22.562523 -14.590776 22.56781572 -17.7578125 22.57421875 C-19.75520865 22.57355797 -21.75260471 22.57227681 -23.75 22.5703125 C-24.70414795 22.57233673 -25.6582959 22.57436096 -26.64135742 22.57644653 C-27.51896729 22.57329437 -28.39657715 22.57014221 -29.30078125 22.56689453 C-30.07719971 22.56609894 -30.85361816 22.56530334 -31.65356445 22.56448364 C-33.4375 22.4375 -33.4375 22.4375 -34.4375 21.4375 C-34.49703442 15.11494438 -33.65377669 10.33749723 -29.4375 5.4375 C-21.67247134 -1.98991872 -10.11652773 -4.54171669 0 0 Z M-22.4375 6.4375 C-23.345 7.015 -24.2525 7.5925 -25.1875 8.1875 C-28.1497763 10.7855441 -28.1497763 10.7855441 -29.4375 17.4375 C-17.5575 17.4375 -5.6775 17.4375 6.5625 17.4375 C4.50337493 10.42323773 4.50337493 10.42323773 0.0625 6.5 C-0.5253125 6.11972656 -1.113125 5.73945312 -1.71875 5.34765625 C-8.33041298 1.84648017 -16.26277599 2.41674948 -22.4375 6.4375 Z " fill="#834A00" transform="translate(41.4375,34.5625)"/>
<path d="M0 0 C3.42599431 2.66466224 5.85648905 4.56946714 7.25 8.75 C7.70789028 14.81704622 6.6539777 18.84519362 2.75 23.5625 C-1.30260525 26.77081249 -6.86849016 26.18738328 -11.75 25.75 C-15.51292473 24.14875543 -17.59097382 22.20444189 -19.75 18.75 C-21.2459122 14.2622634 -21.52306515 10.41209007 -19.5 6.0625 C-14.42874654 -0.63879921 -8.12721859 -3.69419027 0 0 Z M-13.75 6.75 C-15.35290203 9.95580406 -15.23117071 13.27182314 -14.75 16.75 C-13.35314994 19.3969872 -13.35314994 19.3969872 -10.75 20.75 C-6.5590569 21.19902962 -3.28261749 21.19565826 0.25 18.75 C1.85135272 15.54729456 1.73861584 12.22536616 1.25 8.75 C-0.79305692 5.68541462 -2.19079802 4.92846872 -5.6875 3.8125 C-9.34872681 3.73778109 -10.8804674 4.53636056 -13.75 6.75 Z " fill="#844C00" transform="translate(36.75,4.25)"/>
</svg>
